<?plantuml 1.2026.2?><svg xmlns="http://www.w3.org/2000/svg" xmlns:xlink="http://www.w3.org/1999/xlink" contentStyleType="text/css" data-diagram-type="CLASS" height="148px" preserveAspectRatio="none" style="width:456px;height:148px;background:#FEFEFE;" version="1.1" viewBox="0 0 456 148" width="456px" zoomAndPan="magnify"><defs/><g><rect fill="#FEFEFE" height="148" style="stroke:none;stroke-width:1;" width="456" x="0" y="0"/><!--class legend--><g class="entity" data-qualified-name="legend" data-source-line="24" id="ent0002"><polygon fill="#FFFFFF" points="9.5,7,9.5,7.2102,19.4702,6.5857,29.4404,7.1933,39.4106,7.3997,49.3809,6.2866,59.3511,6.9223,69.3213,6.5735,79.2915,6.6165,89.2617,6.9318,99.2319,6.3086,109.2021,7.5536,119.1724,6.3697,129.1426,7,129.1174,6.9391,129.5512,7.2795,129.8387,7.2665,130.2119,7.4604,130.5527,7.5759,130.9103,7.7322,130.9653,7.755,131.1304,8.1163,131.3836,8.5141,131.5563,8.8785,131.7053,9.2331,131.6426,9.5,131.8972,9.5,132.1062,19.4946,132.3448,29.4892,130.9214,39.4838,132.3211,49.4784,131.3461,59.473,132.1764,69.4675,131.1476,79.4621,131.5741,89.4567,132.3842,99.4513,131.5938,109.4459,131.7479,119.4405,131.9812,129.4351,131.6426,139.4297,131.7708,139.4828,131.4949,139.7827,131.4381,140.1734,131.027,140.4173,131.1444,140.8802,130.9103,141.1975,130.9803,141.3663,130.6135,141.4808,130.2814,141.6791,129.7881,141.488,129.4129,141.5824,129.1426,141.9297,129.1426,141.3083,119.1724,141.8708,109.2021,141.7332,99.2319,142.6111,89.2617,141.755,79.2915,141.5866,69.3213,142.158,59.3511,141.2628,49.3809,141.4106,39.4106,142.5786,29.4404,142.3654,19.4702,142.6642,9.5,141.9297,9.459,141.8306,9.1872,141.8815,8.8682,141.8186,8.3791,141.3449,8.0736,141.3144,7.7322,141.1975,7.771,141.2135,7.7865,140.927,7.438,140.4898,7.4353,140.1958,6.9759,139.7126,7,139.4297,6.3227,139.4297,7.5036,129.4351,6.2831,119.4405,7.509,109.4459,7.2066,99.4513,6.7321,89.4567,6.6462,79.4621,7.4588,69.4675,6.7007,59.473,7.5919,49.4784,6.4473,39.4838,7.6174,29.4892,7.4843,19.4946,7,9.5,7.0754,9.5312,7.161,9.1525,7.5167,8.8856,7.6283,8.5176,7.6379,8.1074,7.7322,7.7322,7.7664,7.8148,8.0692,7.5457,8.5307,7.66,8.8126,7.3406,9.1685,7.1996,9.5,7" style="stroke:#FFFFFF;stroke-width:0.5;"/><text fill="#E65100" font-family="Helvetica" font-size="14" lengthAdjust="spacing" textLength="38.1377" x="50.2524" y="22.7803">ddot.it</text><path d="M8,31 L8,31.2802 L18.2202,30.4476 L28.4404,31.2577 L38.6606,31.5329 L48.8809,30.0488 L59.1011,30.8964 L69.3213,30.4313 L79.5415,30.4887 L89.7617,30.9091 L99.9819,30.0782 L110.2021,31.7382 L120.4224,30.1596 L130.6426,31" fill="#FFFFFF"/><text fill="#000000" font-family="sans-serif" font-size="14" lengthAdjust="spacing" textLength="64.7773" x="13" y="48.5352">Datatype:</text><text fill="#000000" font-family="sans-serif" font-size="14" lengthAdjust="spacing" textLength="97.542" x="13" y="85.5117">Semantic web:</text><text fill="#000000" font-family="sans-serif" font-size="14" lengthAdjust="spacing" textLength="112.6426" x="13" y="102">Property graphs:</text><text fill="#000000" font-family="sans-serif" font-size="14" lengthAdjust="spacing" textLength="33.9199" x="13" y="118.4883">OOP:</text><text fill="#000000" font-family="sans-serif" font-size="14" lengthAdjust="spacing" textLength="32.1426" x="13" y="134.9766">CDS:</text><path d="M8,63.7324 L8,63.8258 L14.5057,63.5483 L21.0113,63.8183 L27.517,63.9101 L34.0227,63.4154 L40.5283,63.7324" fill="#FFFFFF"/><text fill="#000000" font-family="sans-serif" font-size="14" lengthAdjust="spacing" textLength="57.5859" x="40.5283" y="68.5234">.............</text><path d="M98.1143,63.7324 L98.1143,63.8258 L104.6199,63.5483 L111.1256,63.8183 L117.6313,63.9101 L124.1369,63.4154 L130.6426,63.7324" fill="#FFFFFF"/></g><!--class from--><g class="entity" data-qualified-name="from" data-source-line="32" id="ent0003"><polygon fill="#FFF3E0" points="169.27,9,169.27,9.2102,178.6204,8.5857,187.9708,9.1933,197.3213,9.3997,206.6717,8.2866,216.0221,8.9223,225.3725,9,225.3181,8.8687,225.6772,9.0283,226.071,9.2719,226.345,9.2264,226.8574,9.7563,227.1403,9.7322,226.9462,9.6518,227.2258,10.0606,227.5662,10.4944,227.5532,10.782,227.7471,11.1552,227.8725,11.5,227.8406,11.5,228.0511,21.1869,228.1117,30.8738,228.4582,40.5607,228.5436,50.2476,228.5518,59.9345,228.1272,69.6214,228.3361,79.3083,228.5748,88.9952,227.1514,98.6821,228.551,108.369,227.576,118.0559,228.4064,127.7428,227.8725,137.4297,227.7201,137.3665,227.705,137.7745,227.808,138.2314,227.4182,138.4841,227.3192,138.8573,227.1403,139.1975,227.1835,139.3017,226.8398,139.4721,226.4327,139.4891,226.1163,139.7252,225.6531,139.607,225.3725,139.9297,225.3725,140.2141,216.0221,140.4779,206.6717,140.3742,197.3213,140.5427,187.9708,139.4466,178.6204,139.2775,169.27,139.9297,169.1907,139.7383,168.9089,139.7651,168.5378,139.5763,168.2963,139.7002,167.8335,139.2901,167.5022,139.1975,167.3966,139.1537,167.4261,138.873,167.004,138.4053,166.903,138.0706,167.1163,137.866,166.77,137.4297,167.2057,137.4297,167.5045,127.7428,166.4482,118.0559,167.0892,108.369,167.3604,98.6821,166.2976,88.9952,166.6741,79.3083,166.896,69.6214,167.4218,59.9345,166.7658,50.2476,167.2326,40.5607,166.2162,30.8738,166.0927,21.1869,166.77,11.5,166.9251,11.5642,166.6957,11.055,167.2196,10.8578,167.273,10.4657,167.2733,10.0516,167.5022,9.7322,167.4571,9.6233,167.9143,9.7271,168.1712,9.3472,168.6384,9.4752,168.8459,8.9762,169.27,9" style="stroke:#FB8C00;stroke-width:0.5;"/><text fill="#E65100" font-family="Helvetica" font-size="14" lengthAdjust="spacing" textLength="28" x="183.3213" y="24.7803">from</text><path d="M167.77,33 L167.77,33.2802 L177.6204,32.4476 L187.4708,33.2577 L197.3213,33.5329 L207.1717,32.0488 L217.0221,32.8964 L226.8725,33" fill="#FFF3E0" style="stroke:#FB8C00;stroke-width:0.5;"/><text fill="#000000" font-family="sans-serif" font-size="14" lengthAdjust="spacing" textLength="39.9697" x="172.77" y="50.5352">String</text><text fill="#000000" font-family="sans-serif" font-size="14" lengthAdjust="spacing" textLength="4.4297" x="172.77" y="67.0234">&#160;</text><text fill="#000000" font-family="sans-serif" font-size="14" lengthAdjust="spacing" textLength="49.1025" x="172.77" y="83.5117">subject</text><text fill="#000000" font-family="sans-serif" font-size="14" lengthAdjust="spacing" textLength="38.3223" x="172.77" y="100">entity</text><text fill="#000000" font-family="sans-serif" font-size="14" lengthAdjust="spacing" textLength="41.877" x="172.77" y="116.4883">object</text><text fill="#000000" font-family="sans-serif" font-size="14" lengthAdjust="spacing" textLength="45.124" x="172.77" y="132.9766">source</text></g><!--class type--><g class="entity" data-qualified-name="type" data-source-line="41" id="ent0004"><polygon fill="#FFF3E0" points="265.09,9,265.09,9.2102,275.3644,8.5857,285.6388,9.1933,295.9132,9.3997,306.1877,8.2866,316.4621,8.9223,326.7365,8.5735,337.0109,8.6165,347.2853,8.9318,357.5597,9,357.4715,8.7871,357.9839,9.3169,358.1864,9.0988,358.5952,9.3784,359.029,9.7188,359.3275,9.7322,359.3011,9.7213,359.495,10.0945,359.6105,10.4353,359.8218,10.8157,359.9869,11.177,360.0597,11.5,360.6454,11.5,360.7308,21.1869,360.739,30.8738,360.3144,40.5607,360.5233,50.2476,360.762,59.9345,359.3385,69.6214,360.7382,79.3083,359.7632,88.9952,360.5935,98.6821,359.5647,108.369,359.9912,118.0559,360.8013,127.7428,360.0597,137.4297,360.0447,137.4235,359.9457,137.7967,359.8711,138.18,359.7486,138.5434,359.4727,138.8434,359.3275,139.1975,359.3641,139.2859,358.9009,139.1676,358.6567,139.5779,358.3368,139.8056,357.97,139.9201,357.5597,139.9297,357.5597,140.5427,347.2853,139.4466,337.0109,139.2775,326.7365,139.3083,316.4621,139.8708,306.1877,139.7332,295.9132,140.6111,285.6388,139.755,275.3644,139.5866,265.09,139.9297,265.1191,140,264.6514,139.5779,264.3167,139.4769,264.1121,139.6902,263.7314,139.4781,263.3222,139.1975,263.5484,139.2911,263.0767,138.8029,263.1276,138.5311,263.0647,138.2121,262.591,137.723,262.59,137.4297,262.4941,137.4297,262.716,127.7428,263.2418,118.0559,262.5858,108.369,263.0526,98.6821,262.0362,88.9952,261.9127,79.3083,263.0936,69.6214,261.8731,59.9345,263.099,50.2476,262.7966,40.5607,262.3221,30.8738,262.2362,21.1869,262.59,11.5,262.7313,11.5585,262.6443,11.1083,263.0652,10.8684,262.8591,10.3688,263.3659,10.1645,263.3222,9.7322,263.384,9.8814,263.707,9.6612,264.0354,9.4539,264.4756,9.5167,264.8147,9.3354,265.09,9" style="stroke:#FB8C00;stroke-width:0.5;"/><text fill="#E65100" font-family="Helvetica" font-size="14" lengthAdjust="spacing" textLength="26.4619" x="298.0939" y="24.7803">type</text><path d="M263.59,33 L263.59,33.2802 L273.137,32.4476 L282.6839,33.2577 L292.2309,33.5329 L301.7779,32.0488 L311.3249,32.8964 L320.8718,32.4313 L330.4188,32.4887 L339.9658,32.9091 L349.5128,32.0782 L359.0597,33" fill="#FFF3E0" style="stroke:#FB8C00;stroke-width:0.5;"/><text fill="#000000" font-family="sans-serif" font-size="14" lengthAdjust="spacing" textLength="39.9697" x="268.59" y="50.5352">String</text><text fill="#000000" font-family="sans-serif" font-size="14" lengthAdjust="spacing" textLength="4.4297" x="268.59" y="67.0234">&#160;</text><text fill="#000000" font-family="sans-serif" font-size="14" lengthAdjust="spacing" textLength="63.1367" x="268.59" y="83.5117">predicate</text><text fill="#000000" font-family="sans-serif" font-size="14" lengthAdjust="spacing" textLength="58.0303" x="268.59" y="100">property</text><text fill="#000000" font-family="sans-serif" font-size="14" lengthAdjust="spacing" textLength="29.8525" x="268.59" y="116.4883">field</text><text fill="#000000" font-family="sans-serif" font-size="14" lengthAdjust="spacing" textLength="85.4697" x="268.59" y="132.9766">relation type</text></g><!--class to--><g class="entity" data-qualified-name="to" data-source-line="49" id="ent0005"><polygon fill="#FFF3E0" points="397.88,9,397.88,9.2102,407.6554,8.5857,417.4308,9.1933,427.2062,9.3997,436.9816,8.2866,446.757,9,446.747,8.9761,447.0561,9.0151,447.4151,9.1748,447.8089,9.4184,448.083,9.3729,448.5247,9.7322,448.6952,9.8029,448.4771,10.0054,448.7567,10.4141,449.0971,10.848,449.0841,11.1355,449.257,11.5,449.3252,11.5,449.225,21.1869,449.4355,30.8738,449.4961,40.5607,449.8426,50.2476,449.928,59.9345,449.9362,69.6214,449.5116,79.3083,449.7205,88.9952,449.9592,98.6821,448.5358,108.369,449.9355,118.0559,448.9604,127.7428,449.257,137.4297,449.4213,137.4978,448.9581,137.7201,448.943,138.1281,449.046,138.5849,448.6562,138.8377,448.5247,139.1975,448.5382,139.2299,448.2144,139.4482,447.8707,139.6185,447.4636,139.6356,447.1471,139.8717,446.757,139.9297,446.757,139.3573,436.9816,140.2141,427.2062,140.4779,417.4308,140.3742,407.6554,140.5427,397.88,139.9297,397.8184,139.7809,397.4433,139.5824,397.0936,139.4454,396.8118,139.4722,396.4407,139.2834,396.1122,139.1975,396.3221,139.2844,395.912,138.8216,395.7137,138.4466,395.7432,138.1659,395.3211,137.6982,395.38,137.4297,394.8609,137.4297,396.029,127.7428,395.8157,118.0559,396.1145,108.369,395.0582,98.6821,395.6992,88.9952,395.9704,79.3083,394.9076,69.6214,395.2841,59.9345,395.506,50.2476,396.0318,40.5607,395.3758,30.8738,395.8426,21.1869,395.38,11.5,395.2095,11.4294,395.3179,11.0601,395.828,10.8571,395.5986,10.3479,396.1225,10.1507,396.1122,9.7322,396.1386,9.7959,396.4316,9.5033,396.7742,9.3304,397.2314,9.4342,397.4883,9.0543,397.88,9" style="stroke:#FB8C00;stroke-width:0.5;"/><text fill="#E65100" font-family="Helvetica" font-size="14" lengthAdjust="spacing" textLength="11.6758" x="416.4806" y="24.7803">to</text><path d="M396.38,33 L396.38,33.2802 L406.7554,32.4476 L417.1308,33.2577 L427.5062,33.5329 L437.8816,32.0488 L448.257,33" fill="#FFF3E0" style="stroke:#FB8C00;stroke-width:0.5;"/><text fill="#000000" font-family="sans-serif" font-size="14" lengthAdjust="spacing" textLength="39.9697" x="401.38" y="50.5352">String</text><text fill="#000000" font-family="sans-serif" font-size="14" lengthAdjust="spacing" textLength="4.4297" x="401.38" y="67.0234">&#160;</text><text fill="#000000" font-family="sans-serif" font-size="14" lengthAdjust="spacing" textLength="41.877" x="401.38" y="83.5117">object</text><text fill="#000000" font-family="sans-serif" font-size="14" lengthAdjust="spacing" textLength="35.5127" x="401.38" y="100">value</text><text fill="#000000" font-family="sans-serif" font-size="14" lengthAdjust="spacing" textLength="35.5127" x="401.38" y="116.4883">value</text><text fill="#000000" font-family="sans-serif" font-size="14" lengthAdjust="spacing" textLength="40.4619" x="401.38" y="132.9766">target</text></g><!--link legend to from--><!--link from to type--><g class="link" data-entity-1="ent0003" data-entity-2="ent0004" data-link-type="association" data-source-line="59" id="lnk7"><path d="M228.05,74.47 L228.05,74.5634 L234.88,74.2859 L241.71,74.5559 L248.54,74.6476 L255.37,74.1529 L262.2,74.47" fill="none" style="stroke:#555555;stroke-width:1;"/></g><!--link type to to--><g class="link" data-entity-1="ent0004" data-entity-2="ent0005" data-link-type="dependency" data-source-line="60" id="lnk8"><path d="M360.32,74.47 L360.32,74.5634 L366.094,74.2859 L371.868,74.5559 L377.642,74.6476 L383.416,74.1529 L389.19,74.47" fill="none" style="stroke:#555555;stroke-width:1;"/><polygon fill="#555555" points="395.19,74.47,395.2185,74.534,393.3339,73.5438,391.6162,72.9289,389.8441,72.1917,387.8934,71.0527,386.19,70.47,386.1717,70.4517,386.8895,71.1695,387.6996,71.9796,388.5739,72.8539,389.227,73.507,390.19,74.47,390.3205,74.6005,389.2414,75.1214,388.5434,76.0234,387.8918,76.9718,386.9698,77.6498,386.19,78.47,386.1992,78.4908,387.9857,77.6603,389.8142,76.9244,391.6224,76.1428,393.4693,75.4484,395.19,74.47" style="stroke:#555555;stroke-width:1;"/></g><?plantuml-src VLF1JiCm3BtdAy8uRof283IXIMniGW81qWuS40UtyTf0cbIEorGX_fqsBL3ADlVo_9g-PpjkfXNAH5DYq8kiIJ0lk98vvZ5IHtb6GiTLWUB85QoTbHbOjINDZ5OobIY4VzEs089Snf2yfUHAgnREE9B7gsNpz4xu39JRoWqOZpqwCU2z_12oZlb0v2dJZE7D5P7RTifd8TeF72ca__pAMRw77EKDcdTadO3u77fUNjv1Z6OsssD-l0hntwV7DpuTkpm_EucYNJQtM1qqELr6Eqpc5uiesclIJirWYbP9y7AabEE9vj6mgsjWQ2vn6hB9C0AxnXniFIIvnRWzzqYkGAfN8YKeCj-I3m-FBLXShwS_DMp8vV9lasicRLCHi2_ZLqmuOAnDk0hG_RBUbPHWhTS9DjKU42m8LNsVtLuKNQ4XsMWqAY120s5bm_v-byhkW6wledSm9GuG0wN8JPNTqCVFzM-YqBw42OWmXd7h5peOpse_yGK0?></g></svg>