<?plantuml 1.2026.1?><svg xmlns="http://www.w3.org/2000/svg" xmlns:xlink="http://www.w3.org/1999/xlink" contentStyleType="text/css" data-diagram-type="CLASS" height="572px" preserveAspectRatio="none" style="width:810px;height:572px;background:#FEFEFE;" version="1.1" viewBox="0 0 810 572" width="810px" zoomAndPan="magnify"><defs/><g><rect fill="#FEFEFE" height="572" style="stroke:none;stroke-width:1;" width="810" x="0" y="0"/><!--class kg--><g class="entity" data-qualified-name="kg" data-source-line="41" id="ent0002"><polygon fill="#F3E5F5" points="689.51,217,689.51,217.2102,699.6473,216.5857,709.7845,217.1933,719.9218,217.3997,730.059,216.2866,740.1963,216.9223,750.3335,216.5735,760.4708,216.6165,770.608,216.9318,780.7453,216.3086,790.8825,217.5536,801.0198,217,800.9394,216.8059,801.3481,217.0855,801.782,217.4259,802.0695,217.4129,802.4427,217.6068,802.7875,217.7322,802.7777,217.7282,802.989,218.1086,803.1541,218.4698,803.4072,218.8676,803.58,219.232,803.5198,219.5,803.7462,219.5,803.6046,223.3,803.6743,227.1,803.7538,230.9,803.2794,234.7,803.5198,238.5,803.7287,238.5866,803.282,238.8157,803.3913,239.2752,802.928,239.4975,802.9129,239.9055,802.7875,240.2678,802.8821,240.4962,802.4278,240.3992,802.0939,240.5931,801.7701,240.8114,801.4264,240.9817,801.0198,241,801.0198,240.9961,790.8825,241.2872,780.7453,240.4276,770.608,241.2844,760.4708,241.5482,750.3335,241.4445,740.1963,241.613,730.059,240.5169,719.9218,240.3478,709.7845,240.3786,699.6473,240.9411,689.51,241,689.4849,240.9395,689.2434,241.0634,688.7806,240.6533,688.4056,240.455,688.1249,240.4845,687.7422,240.2678,687.5369,240.1827,687.4359,239.848,687.6492,239.6434,687.4371,239.2627,687.3826,238.9472,687.01,238.5,686.9027,238.5,687.1164,234.7,687.2068,230.9,686.8525,227.1,686.978,223.3,687.01,219.5,687.0488,219.5161,687.3572,219.2296,687.3016,218.7924,687.5918,218.4983,687.4252,218.0151,687.7422,217.7322,687.6558,217.5237,688.16,217.7409,688.3579,217.2186,688.8678,217.4496,689.1828,217.2101,689.51,217" style="stroke:#8E24AA;stroke-width:0.5;"/><text fill="#4A148C" font-family="Helvetica" font-size="14" lengthAdjust="spacing" textLength="110.5098" x="690.01" y="232.7803">knowledge.cj.json</text></g><!--class Collector--><g class="entity" data-qualified-name="Collector" data-source-line="42" id="ent0003"><polygon fill="#FFF3E0" points="495.27,217,495.27,217.2102,504.6435,216.5857,514.0171,217.1933,523.3906,217.3997,532.7641,216.2866,542.1377,216.9223,551.5112,217,551.4568,216.8687,551.8158,217.0283,552.2096,217.2719,552.4837,217.2264,552.996,217.7563,553.279,217.7322,553.0849,217.6518,553.3645,218.0606,553.7049,218.4944,553.6919,218.782,553.8858,219.1552,554.0112,219.5,554.0006,219.5,554.0707,223.3,554.0909,227.1,554.2064,230.9,554.2349,234.7,554.0112,238.5,554.2204,238.5866,553.9432,238.886,553.8611,239.2662,553.7881,239.6502,553.2033,239.8222,553.279,240.2678,553.3655,240.4767,552.8876,240.3229,552.64,240.7251,552.1552,240.5547,551.856,240.8325,551.5112,241,551.5112,241.7416,542.1377,240.9513,532.7641,241.1053,523.3906,241.3386,514.0171,241.4162,504.6435,240.9961,495.27,241,495.3066,241.0885,494.8434,240.6773,494.5992,240.7947,494.2793,240.7295,493.9125,240.5511,493.5022,240.2678,493.691,240.346,493.207,239.8526,493.0085,239.4775,492.8715,239.1278,492.8983,238.846,492.77,238.5,492.7045,238.5,492.9971,234.7,492.7118,230.9,492.6556,227.1,492.8461,223.3,492.77,219.5,492.5646,219.4149,492.7566,219.0802,493.2627,218.8757,493.3435,218.4949,493.582,218.1795,493.5022,217.7322,493.4612,217.6331,493.8965,217.6841,494.2847,217.6212,494.5026,217.1474,494.9042,217.1169,495.27,217" style="stroke:#FB8C00;stroke-width:0.5;"/><text fill="#E65100" font-family="Helvetica" font-size="14" lengthAdjust="spacing" textLength="55.2412" x="495.77" y="232.7803">Collector</text></g><!--class mdReader--><g class="entity" data-qualified-name="mdReader" data-source-line="44" id="ent0004"><polygon fill="#E8F5E9" points="261.07,446,261.07,446.2102,270.4384,445.5857,279.8069,446.1933,289.1753,446.3997,298.5438,445.2866,307.9122,445.9223,317.2807,445.5735,326.6491,446,326.6002,445.8819,326.994,446.1255,327.268,446.08,327.7804,446.6098,327.9829,446.3917,328.4169,446.7322,328.356,446.707,328.6963,447.1409,328.6833,447.4284,328.8772,447.8016,328.9928,448.1424,329.1491,448.5,329.2086,448.5,329.2288,455.1,329.3443,461.7,329.3728,468.3,329.3755,474.9,329.1491,481.5,329.2275,481.5325,329.1454,481.9127,329.0725,482.2967,328.4877,482.4687,328.7723,483.0008,328.4169,483.2678,328.379,483.1765,328.1314,483.5786,327.6466,483.4082,327.3475,483.686,327.0973,484.0819,326.6491,484,326.6491,483.9513,317.2807,484.1053,307.9122,484.3386,298.5438,484.4162,289.1753,483.9961,279.8069,484.2872,270.4384,483.4276,261.07,484,261.1063,484.0876,260.7864,484.0224,260.4196,483.844,260.0875,483.7494,259.5942,483.2654,259.3022,483.2678,259.1014,483.1846,258.9644,482.8349,258.9912,482.5531,258.8024,482.182,258.9263,481.9405,258.57,481.5,258.5118,481.5,258.4556,474.9,258.6461,468.3,258.3477,461.7,258.397,455.1,258.57,448.5,258.7699,448.5828,258.8506,448.202,259.0891,447.8866,258.9102,447.3983,259.2541,447.1265,259.3022,446.7322,259.3775,446.9141,259.5955,446.4403,259.9971,446.4098,260.379,446.3317,260.7996,446.3472,261.07,446" style="stroke:#43A047;stroke-width:0.5;"/><text fill="#1B5E20" font-family="Helvetica" font-size="14" lengthAdjust="spacing" textLength="64.5791" x="261.57" y="461.7803">Markdown</text><text fill="#1B5E20" font-family="Helvetica" font-size="14" lengthAdjust="spacing" textLength="45.917" x="270.9011" y="475.7803">Reader</text></g><!--class adocReader--><g class="entity" data-qualified-name="adocReader" data-source-line="45" id="ent0005"><polygon fill="#E8F5E9" points="266.13,311,266.13,311.2102,275.3725,310.5857,284.615,311.1933,293.8575,311.3997,303.1001,310.2866,312.3426,310.9223,321.5851,311,321.5307,310.8687,321.8897,311.0283,322.2835,311.2719,322.5575,311.2264,323.0699,311.7563,323.3528,311.7322,323.1587,311.6518,323.4384,312.0606,323.7788,312.4944,323.7658,312.782,323.9596,313.1552,324.0851,313.5,324.0744,313.5,324.1446,320.1,324.1648,326.7,324.2803,333.3,324.3088,339.9,324.0851,346.5,324.2943,346.5866,324.017,346.886,323.935,347.2662,323.862,347.6502,323.2772,347.8222,323.3528,348.2678,323.4394,348.4767,322.9615,348.3229,322.7138,348.7251,322.229,348.5547,321.9299,348.8325,321.5851,349,321.5851,349.7416,312.3426,348.9513,303.1001,349.1053,293.8575,349.3386,284.615,349.4162,275.3725,348.9961,266.13,349,266.1666,349.0885,265.7034,348.6773,265.4592,348.7947,265.1393,348.7295,264.7725,348.5511,264.3622,348.2678,264.551,348.346,264.067,347.8526,263.8685,347.4775,263.7315,347.1278,263.7583,346.846,263.63,346.5,263.5645,346.5,263.8571,339.9,263.5718,333.3,263.5156,326.7,263.7061,320.1,263.63,313.5,263.4246,313.4149,263.6166,313.0802,264.1227,312.8757,264.2035,312.4949,264.442,312.1795,264.3622,311.7322,264.3212,311.6331,264.7565,311.6841,265.1447,311.6212,265.3626,311.1474,265.7642,311.1169,266.13,311" style="stroke:#43A047;stroke-width:0.5;"/><text fill="#1B5E20" font-family="Helvetica" font-size="14" lengthAdjust="spacing" textLength="54.4551" x="266.63" y="326.7803">AsciiDoc</text><text fill="#1B5E20" font-family="Helvetica" font-size="14" lengthAdjust="spacing" textLength="45.917" x="270.899" y="340.7803">Reader</text></g><!--class xmlReader--><g class="entity" data-qualified-name="xmlReader" data-source-line="46" id="ent0006"><polygon fill="#E8F5E9" points="270.4,238,270.4,238.2102,279.7834,237.5857,289.1668,238.1933,298.5502,238.3997,307.9336,237.2866,317.317,238,317.3071,237.9761,317.6161,238.0151,317.9752,238.1748,318.369,238.4184,318.643,238.3729,319.0848,238.7322,319.2553,238.8029,319.0371,239.0054,319.3167,239.4141,319.6571,239.848,319.6441,240.1355,319.817,240.5,319.8397,240.5,319.8063,247.1,319.8765,253.7,319.8967,260.3,320.0122,266.9,319.817,273.5,320.0236,273.5856,319.8797,273.9402,319.6025,274.2396,319.5204,274.6198,319.4475,275.0038,319.0848,275.2678,318.9928,275.0457,318.8178,275.6232,318.3398,275.4693,318.0922,275.8715,317.6074,275.7011,317.317,276,317.317,275.9315,307.9336,276.7416,298.5502,275.9513,289.1668,276.1053,279.7834,276.3386,270.4,276,270.4531,276.1282,270.0459,275.8524,269.7295,275.7956,269.2663,275.3844,269.0221,275.5018,268.6322,275.2678,268.8011,275.3377,268.6227,274.9709,268.5281,274.6389,268.0441,274.1455,267.8456,273.7704,267.9,273.5,267.6929,273.5,267.8804,266.9,267.8345,260.3,268.1271,253.7,267.8418,247.1,267.9,240.5,267.7944,240.4562,268.1167,240.1756,267.9875,239.7078,268.1795,239.3731,268.6856,239.1686,268.6322,238.7322,268.6878,238.8664,269.0795,238.812,269.2983,238.3402,269.7336,238.3912,270.1218,238.3283,270.4,238" style="stroke:#43A047;stroke-width:0.5;"/><text fill="#1B5E20" font-family="Helvetica" font-size="14" lengthAdjust="spacing" textLength="28.7861" x="279.4654" y="253.7803">XML</text><text fill="#1B5E20" font-family="Helvetica" font-size="14" lengthAdjust="spacing" textLength="45.917" x="270.9" y="267.7803">Reader</text></g><!--class ymlReader--><g class="entity" data-qualified-name="ymlReader" data-source-line="47" id="ent0007"><polygon fill="#E8F5E9" points="270.4,7,270.4,7.2102,279.7834,6.5857,289.1668,7.1933,298.5502,7.3997,307.9336,6.2866,317.317,7,317.3071,6.9761,317.6161,7.0151,317.9752,7.1748,318.369,7.4184,318.643,7.3729,319.0848,7.7322,319.2553,7.8029,319.0371,8.0054,319.3167,8.4141,319.6571,8.848,319.6441,9.1355,319.817,9.5,319.8397,9.5,319.8063,16.1,319.8765,22.7,319.8967,29.3,320.0122,35.9,319.817,42.5,320.0236,42.5856,319.8797,42.9402,319.6025,43.2396,319.5204,43.6198,319.4475,44.0038,319.0848,44.2678,318.9928,44.0457,318.8178,44.6232,318.3398,44.4693,318.0922,44.8715,317.6074,44.7011,317.317,45,317.317,44.9315,307.9336,45.7416,298.5502,44.9513,289.1668,45.1053,279.7834,45.3386,270.4,45,270.4531,45.1282,270.0459,44.8524,269.7295,44.7956,269.2663,44.3844,269.0221,44.5018,268.6322,44.2678,268.8011,44.3377,268.6227,43.9709,268.5281,43.6389,268.0441,43.1455,267.8456,42.7704,267.9,42.5,267.6929,42.5,267.8804,35.9,267.8345,29.3,268.1271,22.7,267.8418,16.1,267.9,9.5,267.7944,9.4562,268.1167,9.1756,267.9875,8.7078,268.1795,8.3731,268.6856,8.1686,268.6322,7.7322,268.6878,7.8664,269.0795,7.812,269.2983,7.3402,269.7336,7.3912,270.1218,7.3283,270.4,7" style="stroke:#43A047;stroke-width:0.5;"/><text fill="#1B5E20" font-family="Helvetica" font-size="14" lengthAdjust="spacing" textLength="31.8965" x="277.9103" y="22.7803">Yaml</text><text fill="#1B5E20" font-family="Helvetica" font-size="14" lengthAdjust="spacing" textLength="45.917" x="270.9" y="36.7803">Reader</text></g><!--class javaReader--><g class="entity" data-qualified-name="javaReader" data-source-line="48" id="ent0008"><polygon fill="#E8F5E9" points="254.45,165,254.45,165.2102,264.3025,164.5857,274.1551,165.1933,284.0076,165.3997,293.8602,164.2866,303.7127,164.9223,313.5652,164.5735,323.4178,164.6165,333.2703,165,333.2616,164.979,333.5357,164.9335,334.048,165.4634,334.2506,165.2452,334.6593,165.5249,335.0381,165.7322,335.1711,165.7873,335.1581,166.0748,335.352,166.448,335.4676,166.7888,335.6788,167.1692,335.7703,167.5,335.85,167.5,335.9655,174.1,335.994,180.7,335.9967,187.3,335.8552,193.9,335.7703,200.5,335.9131,200.5591,335.8401,200.9431,335.2553,201.1151,335.5399,201.6472,335.0932,201.8764,335.0381,202.2678,335.1062,202.4322,334.6214,202.2618,334.3222,202.5396,334.072,202.9355,333.6176,202.8385,333.2703,203,333.2703,203.1053,323.4178,203.3386,313.5652,203.4162,303.7127,202.9961,293.8602,203.2872,284.0076,202.4276,274.1551,203.2844,264.3025,203.5482,254.45,203,254.5067,203.1369,254.1746,203.0423,253.6813,202.5583,253.3061,202.3598,252.9565,202.2228,252.6822,202.2678,252.6641,202.2603,252.4753,201.8891,252.5992,201.6476,252.1891,201.1848,251.9908,200.8098,251.95,200.5,252.0261,200.5,251.7277,193.9,251.777,187.3,252.1663,180.7,252.0952,174.1,251.95,167.5,252.1762,167.5937,251.9973,167.1054,252.3412,166.8336,252.5712,166.5147,252.3903,166.0255,252.6822,165.7322,252.67,165.7027,253.0519,165.6246,253.4725,165.6401,253.7424,165.2916,254.1555,165.2889,254.45,165" style="stroke:#43A047;stroke-width:0.5;"/><text fill="#1B5E20" font-family="Helvetica" font-size="14" lengthAdjust="spacing" textLength="77.8203" x="254.95" y="180.7803">Java Source</text><text fill="#1B5E20" font-family="Helvetica" font-size="14" lengthAdjust="spacing" textLength="45.917" x="270.9017" y="194.7803">Reader</text></g><!--class txtReader--><g class="entity" data-qualified-name="txtReader" data-source-line="49" id="ent0009"><polygon fill="#E8F5E9" points="270.4,84,270.4,84.2102,279.7834,83.5857,289.1668,84.1933,298.5502,84.3997,307.9336,83.2866,317.317,84,317.3071,83.9761,317.6161,84.0151,317.9752,84.1748,318.369,84.4184,318.643,84.3729,319.0848,84.7322,319.2553,84.8029,319.0371,85.0054,319.3167,85.4141,319.6571,85.848,319.6441,86.1355,319.817,86.5,319.8397,86.5,319.8063,93.1,319.8765,99.7,319.8967,106.3,320.0122,112.9,319.817,119.5,320.0236,119.5856,319.8797,119.9402,319.6025,120.2396,319.5204,120.6198,319.4475,121.0038,319.0848,121.2678,318.9928,121.0457,318.8178,121.6232,318.3398,121.4693,318.0922,121.8715,317.6074,121.7011,317.317,122,317.317,121.9315,307.9336,122.7416,298.5502,121.9513,289.1668,122.1053,279.7834,122.3386,270.4,122,270.4531,122.1282,270.0459,121.8524,269.7295,121.7956,269.2663,121.3844,269.0221,121.5018,268.6322,121.2678,268.8011,121.3377,268.6227,120.9709,268.5281,120.6389,268.0441,120.1455,267.8456,119.7704,267.9,119.5,267.6929,119.5,267.8804,112.9,267.8345,106.3,268.1271,99.7,267.8418,93.1,267.9,86.5,267.7944,86.4562,268.1167,86.1756,267.9875,85.7078,268.1795,85.3731,268.6856,85.1686,268.6322,84.7322,268.6878,84.8664,269.0795,84.812,269.2983,84.3402,269.7336,84.3912,270.1218,84.3283,270.4,84" style="stroke:#43A047;stroke-width:0.5;"/><text fill="#1B5E20" font-family="Helvetica" font-size="14" lengthAdjust="spacing" textLength="27.2275" x="280.2447" y="99.7803">Text</text><text fill="#1B5E20" font-family="Helvetica" font-size="14" lengthAdjust="spacing" textLength="45.917" x="270.9" y="113.7803">Reader</text></g><!--class f1--><g class="entity" data-qualified-name="f1" data-source-line="51" id="ent0010"><polygon fill="#E3F2FD" points="19.23,542,19.23,542.2102,28.9782,541.5857,38.7265,542.1933,48.4747,542.3997,58.223,541.2866,67.9712,541.9223,77.7195,541.5735,87.4677,541.6165,97.2159,541.9318,106.9642,541.3086,116.7124,542,116.783,542.1705,116.9856,541.9523,117.3943,542.232,117.8282,542.5724,118.1157,542.5594,118.4802,542.7322,118.5012,542.7409,118.6168,543.0817,118.8281,543.4621,118.9932,543.8234,119.2463,544.2212,119.2124,544.5,119.4361,544.5,119.4388,548.3,119.2973,552.1,119.367,555.9,119.4465,559.7,119.2124,563.5,118.9903,563.408,119.2749,563.9401,118.8282,564.1693,118.9375,564.6288,118.4742,564.8511,118.4802,565.2678,118.4715,565.2467,118.2212,565.6426,117.7669,565.5457,117.433,565.7395,117.1092,565.9578,116.7124,566,116.7124,566.4162,106.9642,565.9961,97.2159,566.2872,87.4677,565.4276,77.7195,566.2844,67.9712,566.5482,58.223,566.4445,48.4747,566.613,38.7265,565.5169,28.9782,565.3478,19.23,566,19.1507,565.8086,18.8689,565.8354,18.4978,565.6466,18.2563,565.7705,17.7935,565.3604,17.4622,565.2678,17.3566,565.224,17.3861,564.9433,16.964,564.4756,16.863,564.1409,17.0763,563.9363,16.73,563.5,16.8752,563.5,16.9748,559.7,16.6227,555.9,16.8364,552.1,16.9268,548.3,16.73,544.5,16.5845,544.4397,16.8469,544.1342,17.0617,543.809,17.3701,543.5225,17.3145,543.0853,17.4622,542.7322,17.5212,542.8747,17.7451,542.4152,18.0829,542.2308,18.5871,542.448,18.785,541.9257,19.23,542" style="stroke:#1E88E5;stroke-width:0.5;"/><text fill="#0D47A1" font-family="Helvetica" font-size="14" lengthAdjust="spacing" textLength="96.4824" x="19.73" y="557.7803">architecture.md</text></g><!--class f2--><g class="entity" data-qualified-name="f2" data-source-line="52" id="ent0011"><polygon fill="#E3F2FD" points="29.35,188,29.35,188.2102,39.006,187.5857,48.662,188.1933,58.318,188.3997,67.974,187.2866,77.63,187.9223,87.286,187.5735,96.942,187.6165,106.598,188,106.5894,187.979,106.8634,187.9335,107.3758,188.4634,107.5783,188.2452,107.987,188.5249,108.3658,188.7322,108.4988,188.7873,108.4858,189.0748,108.6797,189.448,108.7953,189.7888,109.0066,190.1692,109.098,190.5,109.1778,190.5,109.2933,194.3,109.3217,198.1,109.3245,201.9,109.1829,205.7,109.098,209.5,109.2408,209.5591,109.1679,209.9431,108.5831,210.1151,108.8677,210.6472,108.4209,210.8764,108.3658,211.2678,108.4339,211.4322,107.9491,211.2618,107.65,211.5396,107.3998,211.9355,106.9454,211.8385,106.598,212,106.598,212.1053,96.942,212.3386,87.286,212.4162,77.63,211.9961,67.974,212.2872,58.318,211.4276,48.662,212.2844,39.006,212.5482,29.35,212,29.4067,212.1369,29.0746,212.0423,28.5813,211.5583,28.2061,211.3598,27.8565,211.2228,27.5822,211.2678,27.5641,211.2603,27.3753,210.8891,27.4992,210.6476,27.0891,210.1848,26.8908,209.8098,26.85,209.5,26.9261,209.5,26.6277,205.7,26.677,201.9,27.0663,198.1,26.9952,194.3,26.85,190.5,27.0762,190.5937,26.8973,190.1054,27.2412,189.8336,27.4712,189.5147,27.2903,189.0255,27.5822,188.7322,27.57,188.7027,27.9519,188.6246,28.3725,188.6401,28.6424,188.2916,29.0555,188.2889,29.35,188" style="stroke:#1E88E5;stroke-width:0.5;"/><text fill="#0D47A1" font-family="Helvetica" font-size="14" lengthAdjust="spacing" textLength="76.248" x="29.85" y="203.7803">Factory.java</text></g><!--class f3--><g class="entity" data-qualified-name="f3" data-source-line="53" id="ent0012"><polygon fill="#E3F2FD" points="41.03,247,41.03,247.2102,51.8093,246.5857,62.5886,247.1933,73.3679,247.3997,84.1472,246.2866,94.9265,247,94.9166,246.9761,95.2256,247.0151,95.5847,247.1748,95.9785,247.4184,96.2525,247.3729,96.6943,247.7322,96.8648,247.8029,96.6466,248.0054,96.9262,248.4141,97.2666,248.848,97.2536,249.1355,97.4265,249.5,97.4492,249.5,97.4158,253.3,97.486,257.1,97.5062,260.9,97.6217,264.7,97.4265,268.5,97.6331,268.5856,97.4892,268.9402,97.212,269.2396,97.1299,269.6198,97.057,270.0038,96.6943,270.2678,96.6023,270.0457,96.4272,270.6232,95.9493,270.4693,95.7017,270.8715,95.2169,270.7011,94.9265,271,94.9265,270.9315,84.1472,271.7416,73.3679,270.9513,62.5886,271.1053,51.8093,271.3386,41.03,271,41.0831,271.1282,40.6759,270.8524,40.3595,270.7956,39.8963,270.3844,39.6521,270.5018,39.2622,270.2678,39.4311,270.3377,39.2527,269.9709,39.1581,269.6389,38.6741,269.1455,38.4756,268.7704,38.53,268.5,38.3229,268.5,38.5104,264.7,38.4645,260.9,38.7571,257.1,38.4718,253.3,38.53,249.5,38.4244,249.4562,38.7467,249.1756,38.6175,248.7078,38.8095,248.3731,39.3156,248.1686,39.2622,247.7322,39.3178,247.8664,39.7095,247.812,39.9283,247.3402,40.3636,247.3912,40.7518,247.3283,41.03,247" style="stroke:#1E88E5;stroke-width:0.5;"/><text fill="#0D47A1" font-family="Helvetica" font-size="14" lengthAdjust="spacing" textLength="52.8965" x="41.53" y="262.7803">pom.xml</text></g><!--class f4--><g class="entity" data-qualified-name="f4" data-source-line="54" id="ent0013"><polygon fill="#E3F2FD" points="25.86,483,25.86,483.2102,36.3893,482.5857,46.9186,483.1933,57.4479,483.3997,67.9772,482.2866,78.5065,482.9223,89.0358,482.5735,99.5651,482.6165,110.0944,483,110.0857,482.979,110.3597,482.9335,110.8721,483.4634,111.0746,483.2452,111.4834,483.5249,111.8621,483.7322,111.9952,483.7873,111.9822,484.0748,112.176,484.448,112.2916,484.7888,112.5029,485.1692,112.5944,485.5,112.6741,485.5,112.7896,489.3,112.8181,493.1,112.8208,496.9,112.6793,500.7,112.5944,504.5,112.7371,504.5591,112.6642,504.9431,112.0794,505.1151,112.364,505.6472,111.9173,505.8764,111.8621,506.2678,111.9302,506.4322,111.4454,506.2618,111.1463,506.5396,110.8961,506.9355,110.4417,506.8385,110.0944,507,110.0944,507.1053,99.5651,507.3386,89.0358,507.4162,78.5065,506.9961,67.9772,507.2872,57.4479,506.4276,46.9186,507.2844,36.3893,507.5482,25.86,507,25.9167,507.1369,25.5846,507.0423,25.0913,506.5583,24.7161,506.3598,24.3665,506.2228,24.0922,506.2678,24.0741,506.2603,23.8853,505.8891,24.0092,505.6476,23.5991,505.1848,23.4008,504.8098,23.36,504.5,23.4361,504.5,23.1377,500.7,23.187,496.9,23.5763,493.1,23.5052,489.3,23.36,485.5,23.5862,485.5937,23.4073,485.1054,23.7512,484.8336,23.9812,484.5147,23.8003,484.0255,24.0922,483.7322,24.08,483.7027,24.4619,483.6246,24.8825,483.6401,25.1524,483.2916,25.5655,483.2889,25.86,483" style="stroke:#1E88E5;stroke-width:0.5;"/><text fill="#0D47A1" font-family="Helvetica" font-size="14" lengthAdjust="spacing" textLength="83.2344" x="26.36" y="498.7803">README.md</text></g><!--class f5--><g class="entity" data-qualified-name="f5" data-source-line="55" id="ent0014"><polygon fill="#E3F2FD" points="36.35,70,36.35,70.2102,46.8902,69.5857,57.4304,70.1933,67.9706,70.3997,78.5108,69.2866,89.051,69.9223,99.5912,70,99.5368,69.8687,99.8958,70.0283,100.2896,70.2719,100.5637,70.2264,101.076,70.7563,101.359,70.7322,101.1649,70.6518,101.4445,71.0606,101.7849,71.4944,101.7719,71.782,101.9658,72.1552,102.0912,72.5,102.0806,72.5,102.1507,76.3,102.1709,80.1,102.2864,83.9,102.3149,87.7,102.0912,91.5,102.3004,91.5866,102.0232,91.886,101.9411,92.2662,101.8681,92.6502,101.2833,92.8222,101.359,93.2678,101.4455,93.4767,100.9676,93.3229,100.72,93.7251,100.2352,93.5547,99.936,93.8325,99.5912,94,99.5912,94.7416,89.051,93.9513,78.5108,94.1053,67.9706,94.3386,57.4304,94.4162,46.8902,93.9961,36.35,94,36.3866,94.0885,35.9234,93.6773,35.6792,93.7947,35.3593,93.7295,34.9925,93.5511,34.5822,93.2678,34.771,93.346,34.287,92.8526,34.0885,92.4775,33.9515,92.1278,33.9783,91.846,33.85,91.5,33.7845,91.5,34.0771,87.7,33.7918,83.9,33.7356,80.1,33.9261,76.3,33.85,72.5,33.6446,72.4149,33.8366,72.0802,34.3427,71.8757,34.4235,71.4949,34.662,71.1795,34.5822,70.7322,34.5412,70.6331,34.9765,70.6841,35.3647,70.6212,35.5826,70.1474,35.9842,70.1169,36.35,70" style="stroke:#1E88E5;stroke-width:0.5;"/><text fill="#0D47A1" font-family="Helvetica" font-size="14" lengthAdjust="spacing" textLength="62.2412" x="36.85" y="85.7803">prompt.txt</text></g><!--class f6--><g class="entity" data-qualified-name="f6" data-source-line="56" id="ent0015"><polygon fill="#E3F2FD" points="33.23,365,33.23,365.2102,43.158,364.5857,53.086,365.1933,63.014,365.3997,72.9421,364.2866,82.8701,364.9223,92.7981,364.5735,102.7261,365,102.6772,364.8819,103.071,365.1255,103.345,365.08,103.8574,365.6098,104.0599,365.3917,104.4939,365.7322,104.433,365.707,104.7733,366.1409,104.7603,366.4284,104.9542,366.8016,105.0698,367.1424,105.2261,367.5,105.2856,367.5,105.3058,371.3,105.4213,375.1,105.4498,378.9,105.4525,382.7,105.2261,386.5,105.3045,386.5325,105.2224,386.9127,105.1495,387.2967,104.5647,387.4687,104.8493,388.0008,104.4939,388.2678,104.456,388.1765,104.2084,388.5786,103.7236,388.4082,103.4245,388.686,103.1742,389.0819,102.7261,389,102.7261,388.9513,92.7981,389.1053,82.8701,389.3386,72.9421,389.4162,63.014,388.9961,53.086,389.2872,43.158,388.4276,33.23,389,33.2663,389.0876,32.9464,389.0224,32.5796,388.844,32.2475,388.7494,31.7542,388.2654,31.4622,388.2678,31.2614,388.1846,31.1244,387.8349,31.1512,387.5531,30.9624,387.182,31.0863,386.9405,30.73,386.5,30.6718,386.5,30.6156,382.7,30.8061,378.9,30.5077,375.1,30.557,371.3,30.73,367.5,30.9299,367.5828,31.0106,367.202,31.2491,366.8866,31.0702,366.3983,31.4141,366.1265,31.4622,365.7322,31.5375,365.9141,31.7555,365.4403,32.1571,365.4098,32.539,365.3317,32.9596,365.3472,33.23,365" style="stroke:#1E88E5;stroke-width:0.5;"/><text fill="#0D47A1" font-family="Helvetica" font-size="14" lengthAdjust="spacing" textLength="68.4961" x="33.73" y="380.7803">todos.adoc</text></g><!--class f7--><g class="entity" data-qualified-name="f7" data-source-line="57" id="ent0016"><polygon fill="#E3F2FD" points="9.5,306,9.5,306.2102,19.2459,305.5857,28.9919,306.1933,38.7378,306.3997,48.4837,305.2866,58.2297,305.9223,67.9756,305.5735,77.7215,305.6165,87.4674,305.9318,97.2134,305.3086,106.9593,306.5536,116.7052,305.3697,126.4512,306,126.4259,305.9391,126.8598,306.2795,127.1473,306.2665,127.5205,306.4604,127.8613,306.5759,128.2189,306.7322,128.2739,306.755,128.439,307.1163,128.6922,307.5141,128.8649,307.8785,129.0139,308.2331,128.9512,308.5,129.036,308.5,129.1057,312.3,129.1852,316.1,128.7108,319.9,129.1773,323.7,128.9512,327.5,128.8599,327.4622,128.9691,327.9216,128.5058,328.144,128.4907,328.5519,128.5938,329.0088,128.2189,329.2678,128.2127,329.2528,127.8788,329.4466,127.555,329.6649,127.2114,329.8353,126.8042,329.8524,126.4512,330,126.4512,330.2872,116.7052,329.4276,106.9593,330.2844,97.2134,330.5482,87.4674,330.4445,77.7215,330.613,67.9756,329.5169,58.2297,329.3478,48.4837,329.3786,38.7378,329.9411,28.9919,329.8035,19.2459,330.6814,9.5,330,9.4777,329.9462,9.1027,329.7479,8.822,329.7774,8.3543,329.3553,8.0196,329.2543,7.7322,329.2678,7.9321,329.3505,7.72,328.9698,7.6655,328.6544,7.1938,328.1661,7.2447,327.8943,7,327.5,7.1968,327.5,6.8425,323.7,6.968,319.9,7.042,316.1,7.2173,312.3,7,308.5,6.9987,308.4995,7.2889,308.2055,7.1223,307.7223,7.2308,307.3529,7.7409,307.15,7.7322,306.7322,7.6408,306.5114,8.1507,306.7425,8.4657,306.503,8.7587,306.2104,9.1013,306.0375,9.5,306" style="stroke:#1E88E5;stroke-width:0.5;"/><text fill="#0D47A1" font-family="Helvetica" font-size="14" lengthAdjust="spacing" textLength="115.9512" x="10" y="321.7803">requirements.adoc</text></g><!--class f8--><g class="entity" data-qualified-name="f8" data-source-line="58" id="ent0017"><polygon fill="#E3F2FD" points="11.08,424,11.08,424.2102,21.4254,423.5857,31.7709,424.1933,42.1163,424.3997,52.4617,423.2866,62.8072,423.9223,73.1526,423.5735,83.4981,423.6165,93.8435,423.9318,104.1889,423.3086,114.5344,424.5536,124.8798,424,124.7994,423.8059,125.2081,424.0855,125.642,424.4259,125.9295,424.4129,126.3027,424.6068,126.6476,424.7322,126.6377,424.7282,126.849,425.1086,127.0141,425.4698,127.2673,425.8676,127.44,426.232,127.3798,426.5,127.6062,426.5,127.4647,430.3,127.5343,434.1,127.6139,437.9,127.1394,441.7,127.3798,445.5,127.5888,445.5866,127.142,445.8157,127.2513,446.2752,126.788,446.4975,126.7729,446.9055,126.6476,447.2678,126.7422,447.4962,126.2878,447.3992,125.9539,447.5931,125.6301,447.8114,125.2865,447.9817,124.8798,448,124.8798,447.9961,114.5344,448.2872,104.1889,447.4276,93.8435,448.2844,83.4981,448.5482,73.1526,448.4445,62.8072,448.613,52.4617,447.5169,42.1163,447.3478,31.7709,447.3786,21.4254,447.9411,11.08,448,11.0549,447.9395,10.8134,448.0634,10.3506,447.6533,9.9756,447.455,9.6949,447.4845,9.3122,447.2678,9.1069,447.1827,9.0059,446.848,9.2192,446.6434,9.0071,446.2627,8.9526,445.9472,8.58,445.5,8.4727,445.5,8.6864,441.7,8.7768,437.9,8.4225,434.1,8.548,430.3,8.58,426.5,8.6188,426.5161,8.9272,426.2296,8.8716,425.7924,9.1618,425.4983,8.9952,425.0151,9.3122,424.7322,9.2258,424.5237,9.73,424.7409,9.9279,424.2186,10.4378,424.4496,10.7528,424.2101,11.08,424" style="stroke:#1E88E5;stroke-width:0.5;"/><text fill="#0D47A1" font-family="Helvetica" font-size="14" lengthAdjust="spacing" textLength="112.7998" x="11.58" y="439.7803">CHANGELOG.md</text></g><!--class f10--><g class="entity" data-qualified-name="f10" data-source-line="59" id="ent0018"><polygon fill="#E3F2FD" points="15.74,129,15.74,129.2102,26.1876,128.5857,36.6351,129.1933,47.0827,129.3997,57.5302,128.2866,67.9778,128.9223,78.4254,128.5735,88.8729,128.6165,99.3205,128.9318,109.768,128.3086,120.2156,129,120.2862,129.1705,120.4887,128.9523,120.8975,129.232,121.3313,129.5724,121.6189,129.5594,121.9834,129.7322,122.0044,129.7409,122.12,130.0817,122.3312,130.4621,122.4963,130.8234,122.7495,131.2212,122.7156,131.5,122.9393,131.5,122.942,135.3,122.8005,139.1,122.8701,142.9,122.9497,146.7,122.7156,150.5,122.4935,150.408,122.7781,150.9401,122.3314,151.1693,122.4406,151.6288,121.9774,151.8511,121.9834,152.2678,121.9746,152.2467,121.7244,152.6426,121.27,152.5457,120.9361,152.7395,120.6123,152.9578,120.2156,153,120.2156,153.4162,109.768,152.9961,99.3205,153.2872,88.8729,152.4276,78.4254,153.2844,67.9778,153.5482,57.5302,153.4445,47.0827,153.613,36.6351,152.5169,26.1876,152.3478,15.74,153,15.6607,152.8086,15.3789,152.8354,15.0078,152.6466,14.7663,152.7705,14.3035,152.3604,13.9722,152.2678,13.8666,152.224,13.8961,151.9433,13.474,151.4756,13.373,151.1409,13.5863,150.9363,13.24,150.5,13.3852,150.5,13.4848,146.7,13.1327,142.9,13.3464,139.1,13.4368,135.3,13.24,131.5,13.0945,131.4397,13.3569,131.1342,13.5717,130.809,13.8801,130.5225,13.8245,130.0853,13.9722,129.7322,14.0312,129.8747,14.2551,129.4152,14.5929,129.2308,15.0971,129.448,15.295,128.9257,15.74,129" style="stroke:#1E88E5;stroke-width:0.5;"/><text fill="#0D47A1" font-family="Helvetica" font-size="14" lengthAdjust="spacing" textLength="103.4756" x="16.24" y="144.7803">FactoryTest.java</text></g><!--class f11--><g class="entity" data-qualified-name="f11" data-source-line="60" id="ent0019"><polygon fill="#E3F2FD" points="26.24,11,26.24,11.2102,36.6736,10.5857,47.1072,11.1933,57.5408,11.3997,67.9744,10.2866,78.408,10.9223,88.8416,10.5735,99.2752,10.6165,109.7088,11,109.7001,10.979,109.9741,10.9335,110.4865,11.4634,110.689,11.2452,111.0977,11.5249,111.4765,11.7322,111.6095,11.7873,111.5965,12.0748,111.7904,12.448,111.906,12.7888,112.1173,13.1692,112.2088,13.5,112.2885,13.5,112.404,17.3,112.4324,21.1,112.4352,24.9,112.2936,28.7,112.2088,32.5,112.3515,32.5591,112.2786,32.9431,111.6938,33.1151,111.9784,33.6472,111.5317,33.8764,111.4765,34.2678,111.5446,34.4322,111.0598,34.2618,110.7607,34.5396,110.5105,34.9355,110.0561,34.8385,109.7088,35,109.7088,35.1053,99.2752,35.3386,88.8416,35.4162,78.408,34.9961,67.9744,35.2872,57.5408,34.4276,47.1072,35.2844,36.6736,35.5482,26.24,35,26.2967,35.1369,25.9646,35.0423,25.4713,34.5583,25.0961,34.3598,24.7465,34.2228,24.4722,34.2678,24.4541,34.2603,24.2653,33.8891,24.3892,33.6476,23.9791,33.1848,23.7808,32.8098,23.74,32.5,23.8161,32.5,23.5177,28.7,23.567,24.9,23.9563,21.1,23.8852,17.3,23.74,13.5,23.9662,13.5937,23.7873,13.1054,24.1312,12.8336,24.3612,12.5147,24.1803,12.0255,24.4722,11.7322,24.46,11.7027,24.8419,11.6246,25.2625,11.6401,25.5324,11.2916,25.9455,11.2889,26.24,11" style="stroke:#1E88E5;stroke-width:0.5;"/><text fill="#0D47A1" font-family="Helvetica" font-size="14" lengthAdjust="spacing" textLength="82.4688" x="26.74" y="26.7803">compose.yml</text></g><!--link Collector to kg--><g class="link" data-entity-1="ent0003" data-entity-2="ent0002" data-link-type="dependency" data-source-line="62" id="lnk20"><path d="M554.5,229 L554.5,229.2802 L564.1946,228.4476 L573.8892,229.2577 L583.5838,229.5329 L593.2785,228.0488 L602.9731,228.8964 L612.6677,228.4313 L622.3623,228.4887 L632.0569,228.9091 L641.7515,228.0782 L651.4462,229.7382 L661.1408,228.1596 L670.8354,228.7363 L680.53,229" fill="none" style="stroke:#555555;stroke-width:1;"/><polygon fill="#555555" points="686.53,229,686.5585,229.064,684.6739,228.0738,682.9562,227.4589,681.1841,226.7217,679.2334,225.5827,677.53,225,677.5117,224.9817,678.2295,225.6995,679.0396,226.5096,679.9139,227.3839,680.567,228.037,681.53,229,681.6605,229.1305,680.5814,229.6514,679.8834,230.5534,679.2318,231.5018,678.3098,232.1798,677.53,233,677.5392,233.0208,679.3257,232.1903,681.1542,231.4544,682.9624,230.6728,684.8093,229.9784,686.53,229" style="stroke:#555555;stroke-width:1;"/><text fill="#000000" font-family="sans-serif" font-size="13" lengthAdjust="spacing" textLength="71.1445" x="585.01" y="225.5684">&#9314; combine</text></g><!--link mdReader to Collector--><g class="link" data-entity-1="ent0004" data-entity-2="ent0003" data-link-type="dependency" data-source-line="64" id="lnk22"><path d="M317.37,445.69 L317.4316,445.7602 L320.0078,443.1289 L322.9453,440.9091 L325.7652,438.5553 L328.1981,435.7608 L331.1666,433.5764 L331.1436,433.5506 L334.2617,430.5597 L337.4958,427.6988 L340.8104,424.9281 L343.8473,421.8463 L347.2733,419.2003 L347.4389,419.3823 L350.6622,415.7389 L354.369,412.6268 L358.1348,409.5796 L361.5574,406.1551 L365.1605,402.9291 L365.1812,402.9513 L368.9785,399.3589 L372.8699,395.8676 L376.7158,392.3275 L380.6484,388.8804 L384.2988,385.13 L384.5047,385.3457 L388.4791,381.5564 L392.3207,377.628 L396.3568,373.9032 L400.402,370.188 L404.1584,366.1703 L403.9334,365.9419 L408.3803,362.4345 L412.0865,358.1752 L416.3558,354.4874 L420.0452,350.2111 L424.2098,346.4172 L424.1882,346.3958 L426.4308,344.6369 L428.1673,342.3783 L430.2025,340.4145 L432.2627,338.4755 L434.142,336.3579 L434.275,336.4865 L436.0971,334.3327 L438.1464,332.3987 L439.828,330.1092 L442.0581,328.3498 L443.9236,326.238 L444.1008,326.4052 L445.9802,324.3467 L447.9476,322.3712 L449.5063,320.0099 L451.3646,317.9314 L453.4883,316.1034 L453.2849,315.9166 L455.3254,314.065 L457.1367,312.003 L459.2803,310.2462 L460.8565,307.9682 L462.77,306 L462.6558,305.8989 L464.2826,304.4448 L465.4213,302.5586 L466.9071,300.9796 L468.7324,299.7013 L469.953,297.8876 L470.1006,298.013 L471.5793,296.4776 L472.5991,294.5523 L474.1937,293.1154 L475.6631,291.5722 L476.8406,289.7809 L476.6782,289.6479 L478.1197,288.1519 L479.508,286.6124 L481.0008,285.1585 L482.0872,283.3718 L483.4007,281.7709 L483.5618,281.8986 L484.4478,280.0536 L485.6449,278.455 L487.2963,277.2165 L488.1112,275.315 L489.601,273.9485 L489.781,274.0854 L491.9127,271.0603 L493.9834,267.9889 L496.1916,265.0221 L498.7176,262.297 L500.7939,259.2298 L500.6863,259.1515 L502.8802,256.809 L504.3424,253.9342 L506.6366,251.6645 L508.4624,249.0542 L510.162,246.352" fill="none" style="stroke:#555555;stroke-width:1;"/><polygon fill="#555555" points="513.65,241.47,513.6856,241.5304,511.8826,242.3505,510.288,243.5246,508.6256,244.5834,506.74,245.2632,505.1633,246.4676,505.1591,246.4421,506.256,246.1415,507.3743,245.9698,508.5076,245.8876,509.5895,245.4969,510.7433,245.5383,510.9254,245.5686,510.7219,246.6198,511.05,247.7595,511.4429,248.91,511.4586,249.9976,511.6726,251.1183,511.6949,251.1229,512.0577,249.1865,512.5219,247.2709,512.9371,245.3453,513.4458,243.4389,513.65,241.47" style="stroke:#555555;stroke-width:1;"/></g><!--link adocReader to Collector--><g class="link" data-entity-1="ent0005" data-entity-2="ent0003" data-link-type="dependency" data-source-line="65" id="lnk24"><path d="M324.32,317.12 L324.4327,317.3766 L333.1905,312.6208 L342.609,309.3692 L351.8123,305.6277 L360.3082,300.2755 L369.7417,297.0582 L378.6474,292.639 L387.9688,289.1663 L387.7615,288.6988 L397.2821,284.9374 L406.2954,280.032 L416.3184,277.4037 L425.0287,271.8149 L434.6126,268.1963 L444.3031,264.8181 L453.3735,260.0412 L462.77,256 L462.7824,256.0277 L468.1398,253.5677 L473.5538,251.2336 L478.9404,248.8389 L484.3792,246.56 L489.648,243.9032" fill="none" style="stroke:#555555;stroke-width:1;"/><polygon fill="#555555" points="495.11,241.42,495.1106,241.4901,493.1391,241.2986,491.1711,241.5178,489.202,241.6033,487.2292,241.249,485.2615,241.5035,485.2524,241.4792,486.271,241.7675,487.3353,242.1781,488.4316,242.6737,489.4181,242.8764,490.5583,243.4894,490.7311,243.5541,489.9644,244.475,489.7023,245.5849,489.5016,246.718,488.9429,247.7168,488.5725,248.7862,488.5895,248.8013,489.872,247.3059,491.232,245.8792,492.5546,244.4194,493.9485,243.0228,495.11,241.42" style="stroke:#555555;stroke-width:1;"/></g><!--link xmlReader to Collector--><g class="link" data-entity-1="ent0006" data-entity-2="ent0003" data-link-type="dependency" data-source-line="66" id="lnk26"><path d="M320.08,253.9 L320.1142,254.1781 L329.7975,252.1472 L339.6815,251.7468 L349.5001,250.8154 L359.1038,248.1379 L368.9923,247.7746 L378.7205,246.1085 L388.5125,244.9609 L398.3489,244.1737 L408.0324,242.1445 L418.0202,242.5876 L427.6123,239.8163 L437.4678,239.1842 L447.3554,238.813 L457.056,236.9234 L466.8661,235.9227 L476.6348,234.5856 L486.425,233.4234" fill="none" style="stroke:#555555;stroke-width:1;"/><polygon fill="#555555" points="492.38,232.69,492.4004,232.757,490.4555,231.9839,488.6302,231.6036,486.766,231.0955,484.7736,230.1665,482.9586,229.82,482.9426,229.7996,483.7629,230.4042,484.6635,231.1117,485.6199,231.8908,486.3839,232.4233,487.4175,233.3011,487.563,233.4147,486.5557,234.0636,485.9731,235.0441,485.4423,236.0651,484.6101,236.8507,483.9364,237.76,483.9481,237.7795,485.6196,236.7369,487.3445,235.783,489.0436,234.7864,490.7918,233.8714,492.38,232.69" style="stroke:#555555;stroke-width:1;"/></g><!--link ymlReader to Collector--><g class="link" data-entity-1="ent0007" data-entity-2="ent0003" data-link-type="dependency" data-source-line="67" id="lnk28"><path d="M320.15,37.18 L320.1906,37.2641 L322.9663,38.4125 L325.9801,40.0539 L328.9163,41.5348 L331.5976,42.4876 L334.6319,44.1714 L334.6161,44.1407 L337.8696,45.7065 L341.2026,47.4272 L344.5907,49.2557 L347.7886,50.713 L351.253,52.6902 L351.3696,52.9068 L352.9058,53.4045 L354.7825,54.5347 L356.7007,55.7421 L358.3772,56.5005 L360.1808,57.4951 L360.1956,57.5215 L362.0221,58.5135 L363.9158,59.626 L365.7771,60.6803 L367.7003,61.8456 L369.4217,62.6491 L369.5712,62.9072 L371.469,64.0088 L373.2703,64.944 L375.2128,66.1228 L377.162,67.3131 L378.9014,68.1415 L378.7359,67.867 L380.9862,69.5636 L382.6913,70.3566 L384.8109,71.8365 L386.5036,72.6089 L388.5463,73.9613 L388.53,73.9355 L390.6692,75.4673 L392.429,76.3974 L394.4127,77.6826 L396.4152,78.9976 L398.2821,80.0975 L398.3841,80.2519 L400.2317,81.3845 L402.2536,82.7808 L403.9937,83.7504 L406.1541,85.3566 L408.0351,86.5395 L408.1741,86.7396 L410.087,88.0491 L412.069,89.4579 L413.7302,90.4052 L415.6265,91.6908 L417.7311,93.2762 L417.5677,93.0535 L419.6287,94.6592 L421.5056,96.014 L423.6495,97.7326 L425.3374,98.83 L427.2964,100.2967 L427.2027,100.1764 L429.2309,101.8355 L430.8584,102.9804 L432.7709,104.4909 L434.9621,106.3591 L436.6569,107.5903 L436.7807,107.7391 L438.682,109.3523 L440.1981,110.5026 L442.1967,112.2327 L444.0901,113.8365 L445.7386,115.1459 L445.5986,114.9894 L447.456,116.6755 L449.2676,118.3104 L451.1691,120.046 L452.7206,121.39 L454.4676,122.9528 L454.6107,123.1004 L455.9568,124.3855 L457.5791,125.9555 L459.6048,127.9418 L460.8878,129.1618 L462.77,131 L462.9368,131.1528 L464.6978,133.0925 L466.4024,134.9806 L468.2344,136.9853 L470.3608,139.2597 L472.0706,141.1525 L471.9667,141.0695 L473.9737,143.4423 L475.2738,145.2505 L477.3777,147.7008 L479.0291,149.7895 L480.5584,151.7809 L480.6473,151.8438 L482.1116,153.9625 L483.8941,156.3064 L485.3891,158.4468 L486.764,160.5021 L488.2386,162.628 L488.3392,162.692 L489.5653,164.7587 L491.2583,167.1224 L492.4233,169.1501 L493.8054,171.3161 L495.1162,173.4366 L494.8822,173.3013 L496.1764,175.449 L497.7526,177.7599 L498.9298,179.84 L499.964,181.8373 L501.1966,183.9495 L501.0701,183.8823 L502.1682,185.8958 L503.0425,187.7904 L504.5322,190.0118 L505.7174,192.0714 L506.4847,193.9092 L506.6958,194.01 L508.4075,197.4885 L509.718,200.7757 L511.4519,204.2649 L512.9055,207.6203 L514.705,211.1408" fill="none" style="stroke:#555555;stroke-width:1;"/><polygon fill="#555555" points="517.15,216.62,517.2201,216.6201,517.009,214.65,517.2086,212.6806,517.2744,210.7109,516.9005,208.7406,517.1353,206.7712,517.1111,206.7619,516.598,207.7769,516.2068,208.8386,515.9004,209.9327,515.3018,210.915,515.1125,212.054,515.1785,212.2263,513.9808,211.4532,512.9758,211.1833,511.9943,210.9747,510.876,210.409,509.8297,210.0312,509.8449,210.0481,511.2866,211.341,512.7976,212.7109,514.2752,214.0437,515.8165,215.4473,517.15,216.62" style="stroke:#555555;stroke-width:1;"/><text fill="#000000" font-family="sans-serif" font-size="13" lengthAdjust="spacing" textLength="95.1196" x="366.77" y="58.5484">&#9313; triple events</text></g><!--link javaReader to Collector--><g class="link" data-entity-1="ent0008" data-entity-2="ent0003" data-link-type="dependency" data-source-line="68" id="lnk30"><path d="M335.98,191.52 L336.0319,191.7954 L345.8717,192.8596 L356.0156,195.5383 L366.0605,197.6912 L375.7798,198.1152 L385.9306,200.8307 L395.9437,202.815 L395.9076,202.6289 L402.6281,203.9527 L409.3717,205.3953 L416.0357,206.4284 L422.8581,208.2765 L429.528,209.34 L429.4729,209.0653 L436.1591,210.5858 L442.8625,212.1922 L449.4657,213.2986 L456.1276,214.6977 L462.77,216 L462.7671,215.9861 L467.5401,217.0814 L472.2993,218.1115 L477.0848,219.2659 L481.8463,220.3068 L486.5384,221.0187" fill="none" style="stroke:#555555;stroke-width:1;"/><polygon fill="#555555" points="492.4,222.3,492.4415,222.3565,490.7306,221.0228,489.2628,220.0201,487.7159,218.9096,485.9087,217.4446,484.4618,216.4704,484.44,216.4564,484.9528,217.346,485.5756,218.3061,486.2748,219.3153,486.7106,220.1555,487.5153,221.2323,487.615,221.3876,486.4495,221.6661,485.575,222.3982,484.7359,223.1856,483.6904,223.6511,482.7534,224.2858,482.758,224.3081,484.6806,223.8782,486.6241,223.5498,488.5574,223.1724,490.51,222.8884,492.4,222.3" style="stroke:#555555;stroke-width:1;"/></g><!--link txtReader to Collector--><g class="link" data-entity-1="ent0009" data-entity-2="ent0003" data-link-type="dependency" data-source-line="69" id="lnk32"><path d="M320.31,112.56 L320.3445,112.6468 L323.0135,113.4907 L325.8848,114.8435 L328.6902,116.0306 L331.279,116.6727 L334.1677,118.0692 L334.1545,118.0373 L337.2816,119.2082 L340.475,120.5401 L343.7146,121.9839 L346.7951,123.042 L350.0984,124.6403 L350.1956,124.8664 L353.4941,125.8904 L357.0763,127.5745 L360.6932,129.339 L364.1086,130.6351 L367.63,132.1775 L367.6424,132.2052 L371.3561,133.8461 L375.1266,135.6129 L378.8696,137.3189 L382.6649,139.1408 L386.29,140.585 L386.418,140.8544 L390.2829,142.694 L394.0651,144.3599 L397.9682,146.2802 L401.877,148.2123 L405.6063,149.7668 L405.4636,149.4798 L407.6919,151.0071 L409.4503,151.5894 L411.5659,152.8901 L413.3137,153.4509 L415.3629,154.6182 L415.349,154.5911 L417.4624,155.9131 L419.2505,156.6025 L421.2305,157.6652 L423.2266,158.7592 L425.1066,159.6272 L425.1936,159.7904 L427.0401,160.6566 L429.0352,161.8017 L430.7898,162.4955 L432.9032,163.8625 L434.7781,164.7819 L434.8962,164.9949 L436.782,166.0123 L438.7264,167.1355 L440.3983,167.7671 L442.2699,168.759 L444.3186,170.0702 L444.1802,169.8311 L446.1755,171.1296 L448.0149,172.1586 L450.0804,173.5784 L451.7599,174.331 L453.6689,175.4802 L453.5898,175.3499 L455.5417,176.6709 L457.1556,177.4347 L459.0099,178.5948 L461.0993,180.1427 L462.77,181 L462.8766,181.1617 L465.3521,182.8563 L467.4962,184.0481 L470.0555,185.8697 L472.5243,187.5541 L474.7824,188.9188 L474.6581,188.7496 L476.9159,190.4705 L479.1329,192.1359 L481.43,193.9103 L483.4161,195.2614 L485.5759,196.8489 L485.7048,197.009 L487.3818,198.2361 L489.3077,199.7722 L491.5973,201.7599 L493.2173,202.9163 L495.3775,204.7433 L495.5254,204.9145 L497.2449,206.3752 L498.9143,207.778 L500.6967,209.3115 L502.7403,211.1471 L504.4143,212.5553" fill="none" style="stroke:#555555;stroke-width:1;"/><polygon fill="#555555" points="508.9,216.54,508.9638,216.569,507.9598,214.6894,507.3298,212.9796,506.578,211.2145,505.4258,209.2676,504.8279,207.5724,504.802,207.5709,504.7528,208.6934,504.8339,209.8236,505.0056,210.9592,504.865,212.0764,505.1619,213.2194,505.1728,213.4036,504.0201,213.0764,502.8992,213.2872,501.7822,213.5635,500.6426,213.458,499.5149,213.5534,499.5218,213.575,501.3887,214.1405,503.287,214.8047,505.1701,215.4213,507.0822,216.1287,508.9,216.54" style="stroke:#555555;stroke-width:1;"/></g><!--link f1 to mdReader--><g class="link" data-entity-1="ent0010" data-entity-2="ent0004" data-link-type="dependency" data-source-line="70" id="lnk34"><path d="M100.11,541.62 L100.2135,541.8804 L109.4456,537.3146 L119.2845,534.2754 L128.9258,530.739 L137.9173,525.5678 L147.77,522.5634 L157.1379,518.3392 L166.6988,514.6004 L176.3937,511.1991 L185.6265,506.6348 L195.7793,504.3854 L204.7359,499.1264 L214.4886,495.8702 L224.3384,492.8584 L233.623,488.4248 L243.2386,484.8236 L252.7446,480.947" fill="none" style="stroke:#555555;stroke-width:1;"/><polygon fill="#555555" points="258.32,478.73,258.3228,478.8,256.3463,478.5137,254.3861,478.6378,252.4206,478.6283,250.4377,478.1792,248.4789,478.3386,248.4687,478.3148,249.4616,478.6558,250.5063,479.1168,251.5869,479.6611,252.5436,479.9181,253.6738,480.5775,253.8433,480.6505,253.0331,481.5333,252.7177,482.6294,252.4627,483.7514,251.8564,484.7221,251.4349,485.7724,251.4512,485.7883,252.8043,484.3565,254.2315,482.9971,255.623,481.6027,257.0826,480.275,258.32,478.73" style="stroke:#555555;stroke-width:1;"/></g><!--link f4 to mdReader--><g class="link" data-entity-1="ent0013" data-entity-2="ent0004" data-link-type="dependency" data-source-line="71" id="lnk36"><path d="M112.94,489.11 L112.9772,489.3878 L122.8154,487.2294 L132.8718,486.6993 L142.8572,485.639 L152.6089,482.835 L162.6702,482.342 L172.5573,480.548 L182.5137,479.2718 L192.5183,478.3555 L202.3568,476.1988 L212.526,476.5111 L222.2652,473.6134 L232.2906,472.8519 L242.3509,472.3511 L252.2232,470.4472" fill="none" style="stroke:#555555;stroke-width:1;"/><polygon fill="#555555" points="258.17,469.65,258.1897,469.7172,256.2408,468.9637,254.4075,468.6043,252.5365,468.1166,250.5418,467.2068,248.7183,466.8812,248.7026,466.8606,249.5313,467.4548,250.4392,468.1529,251.4021,468.923,252.1753,469.4445,253.2143,470.3143,253.361,470.4263,252.3607,471.086,251.7887,472.0727,251.2689,473.0993,250.4451,473.8937,249.7812,474.8103,249.7932,474.8297,251.4534,473.7692,253.1679,472.7969,254.8563,471.782,256.5945,470.8483,258.17,469.65" style="stroke:#555555;stroke-width:1;"/></g><!--link f8 to mdReader--><g class="link" data-entity-1="ent0017" data-entity-2="ent0004" data-link-type="dependency" data-source-line="72" id="lnk38"><path d="M127.8,443.62 L127.836,443.8979 L137.2959,444.3113 L146.9669,446.354 L156.5692,447.8661 L165.9454,447.6334 L175.6212,449.7132 L185.1283,450.4912 L194.7026,451.7872 L204.3235,453.4434 L213.7837,453.8585 L223.5638,456.744 L232.9279,456.4177 L242.5689,458.2288 L252.1697,459.7295" fill="none" style="stroke:#555555;stroke-width:1;"/><polygon fill="#555555" points="258.12,460.5,258.1564,460.5598,256.3658,459.3575,254.7888,458.506,253.1422,457.5402,251.2669,456.1987,249.7082,455.3773,249.6877,455.3615,250.2863,456.1866,250.9882,457.0915,251.7621,458.0518,252.2882,458.8211,253.1614,459.8579,253.2741,460.0041,252.137,460.3821,251.3289,461.1869,250.561,462.0438,249.5595,462.5978,248.6808,463.3111,248.6873,463.3329,250.5656,462.7386,252.4735,462.2437,254.3671,461.7008,256.2879,461.2493,258.12,460.5" style="stroke:#555555;stroke-width:1;"/></g><!--link f6 to adocReader--><g class="link" data-entity-1="ent0015" data-entity-2="ent0005" data-link-type="dependency" data-source-line="73" id="lnk40"><path d="M105.44,369.34 L105.4976,369.6143 L114.8201,366.8065 L124.4802,365.6064 L134.0304,363.8829 L143.2191,360.4375 L152.8869,359.2742 L162.285,356.8261 L171.7904,354.8894 L181.3704,353.308 L190.6934,350.5019 L200.528,350.1336 L209.6974,346.5958 L219.3095,345.1673 L228.9756,343.9961 L238.3275,341.3277 L247.8633,339.5357 L257.3382,337.4538" fill="none" style="stroke:#555555;stroke-width:1;"/><polygon fill="#555555" points="263.21,336.22,263.2247,336.2885,261.255,335.6722,259.3714,335.4575,257.4598,335.112,255.456,334.3364,253.5798,334.1562,253.5656,334.1345,254.4495,334.6555,255.4048,335.2859,256.4096,335.9924,257.2435,336.4368,258.3169,337.2482,258.4714,337.349,257.5225,338.0807,257.0249,339.107,256.5822,340.1691,255.8193,341.0222,255.2249,341.9852,255.2382,342.0037,256.8157,340.8235,258.4538,339.7274,260.0626,338.5907,261.7273,337.5313,263.21,336.22" style="stroke:#555555;stroke-width:1;"/></g><!--link f7 to adocReader--><g class="link" data-entity-1="ent0016" data-entity-2="ent0005" data-link-type="dependency" data-source-line="74" id="lnk42"><path d="M129.27,321.23 L129.285,321.5098 L139.088,321.206 L148.979,322.5426 L158.8413,323.345 L168.6094,322.3907 L178.5024,323.7646 L188.3251,323.8279 L198.1757,324.4128 L208.0458,325.3602 L217.8489,325.0581 L227.7853,327.2434 L237.5485,326.1947 L247.4269,327.2982 L257.2886,328.0891" fill="none" style="stroke:#555555;stroke-width:1;"/><polygon fill="#555555" points="263.28,328.41,263.3118,328.4724,261.4626,327.3919,259.8,326.6771,258.0766,325.8433,256.1534,324.6177,254.5068,323.9344,254.4875,323.9171,255.1571,324.681,255.9239,325.5322,256.7581,326.4441,257.3596,327.1469,258.2872,328.1426,258.4105,328.2799,257.3051,328.7424,256.5598,329.6057,255.8584,330.5179,254.9015,331.1456,254.0789,331.9229,254.0871,331.9442,255.9154,331.2104,257.7806,330.5733,259.628,329.8896,261.5094,329.295,263.28,328.41" style="stroke:#555555;stroke-width:1;"/></g><!--link f5 to txtReader--><g class="link" data-entity-1="ent0014" data-entity-2="ent0009" data-link-type="dependency" data-source-line="75" id="lnk44"><path d="M102.49,85.14 L102.5162,85.419 L112.3763,85.5225 L122.3899,87.2616 L132.3534,88.468 L142.1527,87.9229 L152.1698,89.6993 L162.0642,90.1687 L172.0074,91.1583 L181.9846,92.5094 L191.8449,92.6146 L201.9378,95.1998 L211.7283,94.5606 L221.72,96.0673 L231.7364,97.8357 L241.6098,98.0809 L251.5668,99.2179 L261.4962,100.0598" fill="none" style="stroke:#555555;stroke-width:1;"/><polygon fill="#555555" points="267.47,100.62,267.5043,100.6811,265.6849,99.535,264.0667,98.747,262.3829,97.8424,260.4838,96.5544,258.8828,95.7971,258.8629,95.7806,259.4951,96.5776,260.228,97.458,261.0307,98.3962,261.5926,99.1349,262.4918,100.1531,262.6096,100.2953,261.4866,100.7132,260.7074,101.546,259.9701,102.4294,258.9888,103.0184,258.1358,103.7622,258.1431,103.7837,259.9993,103.1237,261.8885,102.5617,263.7618,101.9524,265.6655,101.4335,267.47,100.62" style="stroke:#555555;stroke-width:1;"/></g><!--link f2 to javaReader--><g class="link" data-entity-1="ent0011" data-entity-2="ent0008" data-link-type="dependency" data-source-line="76" id="lnk46"><path d="M109.52,197.1 L109.54,197.3795 L119.1932,195.8552 L128.9634,195.9695 L138.6955,195.5503 L148.3023,193.3762 L158.0752,193.5278 L167.7546,192.3702 L177.4712,191.7336 L187.2137,191.4592 L196.867,189.9366 L206.6978,190.8987 L216.2978,188.6303 L226.0514,188.5118 L235.8238,188.6555 L245.4952,187.3873" fill="none" style="stroke:#555555;stroke-width:1;"/><polygon fill="#555555" points="251.48,186.96,251.5038,187.0259,249.5806,186.1603,247.7971,185.681,245.9681,185.0759,243.9895,184.0572,242.218,183.6111,242.201,183.5915,242.9798,184.2446,243.8442,184.9965,244.7679,185.8169,245.4868,186.4009,246.4927,187.3161,246.6322,187.4369,245.5929,188.0334,244.9609,188.9828,244.3785,189.9752,243.5071,190.7171,242.7877,191.5908,242.7984,191.6108,244.5212,190.6552,246.2926,189.791,248.0406,188.8827,249.8333,188.0585,251.48,186.96" style="stroke:#555555;stroke-width:1;"/></g><!--link f10 to javaReader--><g class="link" data-entity-1="ent0018" data-entity-2="ent0008" data-link-type="dependency" data-source-line="77" id="lnk48"><path d="M123.04,148.05 L123.0537,148.1424 L127.6666,148.5576 L132.3597,149.5144 L137.0267,150.2949 L141.6078,150.4952 L146.3078,151.4986 L146.3023,151.4645 L151.2737,152.1135 L156.2727,152.9344 L161.2908,153.8748 L166.2429,154.4033 L171.2875,155.5088 L171.3303,155.7511 L176.3555,156.1366 L181.5056,157.2295 L186.671,158.4088 L191.7476,159.0858 L196.8709,160.027 L196.8767,160.0568 L199.4026,160.4997 L201.9546,161.0781 L204.4941,161.5912 L207.0575,162.2291 L209.5428,162.46 L209.6026,162.7522 L212.0848,163.2638 L214.5284,163.5869 L217.0284,164.1859 L219.5311,164.7978 L221.95,165 L221.8812,164.687 L224.4186,165.8231 L226.7295,165.9283 L229.2126,166.8173 L231.5183,166.8992 L233.9695,167.6426 L233.962,167.6131 L236.4538,168.5673 L238.772,168.8317 L241.1926,169.5031 L243.6218,170.2087 L245.9889,170.6678" fill="none" style="stroke:#555555;stroke-width:1;"/><polygon fill="#555555" points="251.79,172.2,251.8339,172.2546,250.1675,170.8592,248.7583,169.7839,247.2654,168.6045,245.4971,167.082,244.1099,166.0343,244.0875,166.0212,244.5562,166.9405,245.1378,167.9255,245.7978,168.9562,246.1874,169.8294,246.9558,170.9231,247.0486,171.0826,245.8723,171.3107,244.9671,172.0045,244.0949,172.7551,243.0303,173.1751,242.0669,173.769,242.0705,173.7915,244.0098,173.4447,245.9656,173.2002,247.9135,172.9063,249.8765,172.7065,251.79,172.2" style="stroke:#555555;stroke-width:1;"/></g><!--link f3 to xmlReader--><g class="link" data-entity-1="ent0012" data-entity-2="ent0006" data-link-type="dependency" data-source-line="78" id="lnk50"><path d="M97.79,258.74 L97.7925,259.0202 L108.0239,258.0965 L118.2698,258.8156 L128.511,258.9997 L138.7366,257.4246 L148.9829,258.1811 L159.2175,257.625 L169.4568,257.5912 L179.6993,257.9206 L189.9307,256.9986 L200.1842,258.5675 L210.4089,256.8979 L220.6528,257.3835 L230.8991,258.1321 L241.1317,257.3507 L251.3723,257.465 L261.6102,257.283" fill="none" style="stroke:#555555;stroke-width:1;"/><polygon fill="#555555" points="267.61,257.23,267.6379,257.2943,265.748,256.3192,264.0217,255.7209,262.2421,255,260.2874,253.8755,258.575,253.3096,258.5569,253.2911,259.2824,254.0011,260.0995,254.8042,260.9802,255.6721,261.6417,256.3168,262.6102,257.2741,262.7418,257.4035,261.6674,257.9339,260.9774,258.842,260.3342,259.7961,259.4182,260.4822,258.6457,261.3093,258.6551,261.33,260.4341,260.4837,262.256,259.7317,264.0573,258.9343,265.898,258.2236,267.61,257.23" style="stroke:#555555;stroke-width:1;"/></g><!--link f11 to ymlReader--><g class="link" data-entity-1="ent0019" data-entity-2="ent0007" data-link-type="dependency" data-source-line="79" id="lnk52"><path d="M112.67,23.59 L112.6737,23.8702 L122.598,23.1703 L132.5442,24.113 L142.4832,24.5209 L152.3988,23.1696 L162.3455,24.1498 L172.2746,23.8175 L182.2108,24.0075 L192.1517,24.5605 L202.076,23.8624 L212.0335,25.6549 L221.9478,24.2091 L231.8909,24.9185 L241.8375,25.8907 L251.7636,25.3331 L261.7005,25.5802" fill="none" style="stroke:#555555;stroke-width:1;"/><polygon fill="#555555" points="267.7,25.66,267.7293,25.7236,265.853,24.7107,264.1486,24.0708,262.3881,23.3094,260.4438,22.1485,258.754,21.5406,258.7355,21.5225,259.4415,22.252,260.241,23.0726,261.1056,23.9565,261.746,24.6221,262.7004,25.5935,262.8292,25.7257,261.7433,26.2322,261.0333,27.1248,260.3692,28.0645,259.4382,28.7301,258.6476,29.5399,258.6565,29.5608,260.4539,28.7541,262.292,28.0426,264.1104,27.2852,265.9664,26.6154,267.7,25.66" style="stroke:#555555;stroke-width:1;"/><text fill="#000000" font-family="sans-serif" font-size="13" lengthAdjust="spacing" textLength="61.2104" x="159.95" y="20.7984">&#9312; extract</text></g><?plantuml-src VLNHRfim57ttLtZjmvw28866JLKbcfXMKzj9NQLjKbzSSnFS06R6QHfL-uZzmRPFsvVCXYHGeC0JvvvxZwzzhebv19XnoH8eK6m-8CtL5gUGFe3SGOK22K9jSq3lHAwuo71CisWZkLAGOINNW19OAAm4bdmPAnnn2SmG4IfMFCkff2b-e6orb6ATHJEH28cFGsBU1gE8QIGsU46J0fgPBA55WLyGrizvgyhNc2ie8u6KOhChxPLFbI1a1BABXo9JDpG5V0d94oZEAFhP4Jqz3Na2PsTlY1-JIJWEvrqTX_W-gNLsg3rtfu7JAtCBL6SF2FcXHpvqXTn9OBlJjf1pxf6ntIiq4tAWdp0C9yJkoeJd_iosspBan7FiVfavLNH0PaAyiETuV39sWw0jumQEwy-CJ6M4rHBJ0X-jCh5985g2nHwjnq9aHtYlkoFg_4JxKDVOzxqlaKRLXfU5hgbSQTzbzra5cZhxyzZnjIzP8oCe6ETpmGOodjEaaV3j-cg0ktt5_KxJP83yI9zeW_r9V-8lOYqP32IfPzN8kODdrKlUiHTEIQEIcU5YQYt1IYF3hAPXJnkNj92QBTvQPc5TpgJav2Arz8vqmsuPlYN1_9hqQdXLlXJwNh9q6rt6ISbG8XA5PSwfovYM30a_rlfUIY5JRn7zaZYx36ukoDNdYzu5ENQpwpier1kTEzKkChroKO2rVTK-ghqv6fqPIt_4_txznPhzm3D0xm_kli-MakPn8-5qD5eV7Dp6QwUs8mT7jWEr_SmQ_kWBdUU9_XCycPrgaslxjIC7Zw73T9Numca3RXlmKMF0AkYa2qrHRUCAyL1Z6Yfet8KS6zNJM44Jj6qXZcEQ_utrQ4XzjFy1?></g></svg>