<?plantuml 1.2026.1?><svg xmlns="http://www.w3.org/2000/svg" xmlns:xlink="http://www.w3.org/1999/xlink" contentStyleType="text/css" data-diagram-type="CLASS" height="212px" preserveAspectRatio="none" style="width:760px;height:212px;background:#FEFEFE;" version="1.1" viewBox="0 0 760 212" width="760px" zoomAndPan="magnify"><defs/><g><rect fill="#FEFEFE" height="212" style="stroke:none;stroke-width:1;" width="760" x="0" y="0"/><!--class Entity--><g class="entity" data-qualified-name="Entity" data-source-line="29" id="ent0002"><polygon fill="#FFF3E0" points="9.5,23.49,9.5,23.7002,19.3581,23.0757,29.2162,23.6833,39.0743,23.8897,48.9324,22.7766,58.7905,23.4123,68.6486,23.0635,78.5067,23.1065,88.3648,23.4218,98.2229,22.7986,108.0811,23.49,108.1517,23.6605,108.3542,23.4423,108.7629,23.722,109.1968,24.0624,109.4843,24.0494,109.8488,24.2222,109.8698,24.2309,109.9854,24.5717,110.1967,24.9521,110.3618,25.3134,110.615,25.7112,110.5811,25.99,110.8047,25.99,110.8075,34.6877,110.6659,43.3853,110.7356,52.083,110.8151,60.7806,110.5811,69.4783,110.359,69.3863,110.6436,69.9184,110.1969,70.1476,110.3061,70.607,109.8428,70.8293,109.8488,71.246,109.8401,71.225,109.5899,71.6209,109.1355,71.5239,108.8016,71.7178,108.4778,71.9361,108.0811,71.9783,108.0811,72.3945,98.2229,71.9744,88.3648,72.2655,78.5067,71.4059,68.6486,72.2627,58.7905,72.5265,48.9324,72.4228,39.0743,72.5913,29.2162,71.4952,19.3581,71.3261,9.5,71.9783,9.4207,71.7869,9.1389,71.8137,8.7678,71.6249,8.5263,71.7488,8.0635,71.3387,7.7322,71.246,7.6266,71.2023,7.6561,70.9216,7.234,70.4539,7.133,70.1192,7.3463,69.9146,7,69.4783,7.1452,69.4783,7.2448,60.7806,6.8927,52.083,7.1064,43.3853,7.1968,34.6877,7,25.99,6.8545,25.9297,7.1169,25.6242,7.3317,25.299,7.6401,25.0125,7.5845,24.5753,7.7322,24.2222,7.7912,24.3647,8.0151,23.9052,8.3529,23.7208,8.8571,23.938,9.055,23.4157,9.5,23.49" style="stroke:#FB8C00;stroke-width:0.5;"/><text fill="#E65100" font-family="Helvetica" font-size="14" lengthAdjust="spacing" textLength="35.0137" x="41.2837" y="39.2703">Entity</text><path d="M8,47.49 L8,47.7702 L18.1581,46.9376 L28.3162,47.7477 L38.4743,48.0229 L48.6324,46.5388 L58.7905,47.3864 L68.9486,46.9213 L79.1067,46.9787 L89.2648,47.3991 L99.4229,46.5682 L109.5811,47.49" fill="#FFF3E0" style="stroke:#FB8C00;stroke-width:0.5;"/><text fill="#000000" font-family="sans-serif" font-size="14" lengthAdjust="spacing" textLength="91.5811" x="13" y="65.0252">entity : String</text></g><!--class Type--><g class="entity" data-qualified-name="Type" data-source-line="33" id="ent0003"><polygon fill="#FFF3E0" points="208.08,23.49,208.08,23.7002,218.0157,23.0757,227.9513,23.6833,237.887,23.8897,247.8226,22.7766,257.7583,23.4123,267.6939,23.0635,277.6296,23.1065,287.5652,23.4218,297.5009,23.49,297.4127,23.2771,297.9251,23.8069,298.1276,23.5888,298.5363,23.8684,298.9702,24.2088,299.2687,24.2222,299.2422,24.2113,299.4361,24.5845,299.5517,24.9253,299.763,25.3057,299.9281,25.667,300.0009,25.99,300.1961,25.99,300.2246,34.6877,300.2273,43.3853,300.0858,52.083,300.1554,60.7806,300.0009,69.4783,300.2172,69.5679,299.6324,69.7398,299.917,70.2719,299.4702,70.5011,299.5795,70.9606,299.2687,71.246,299.2055,71.0936,298.9064,71.3714,298.6562,71.7673,298.2018,71.6704,297.8679,71.8643,297.5009,71.9783,297.5009,72.3169,287.5652,72.3945,277.6296,71.9744,267.6939,72.2655,257.7583,71.4059,247.8226,72.2627,237.887,72.5265,227.9513,72.4228,218.0157,72.5913,208.08,71.9783,208.0184,71.8295,207.6433,71.631,207.2936,71.494,207.0118,71.5208,206.6407,71.332,206.3122,71.246,206.5221,71.333,206.112,70.8702,205.9137,70.4952,205.9432,70.2145,205.5211,69.7468,205.58,69.4783,205.407,69.4783,205.7963,60.7806,205.7252,52.083,205.8248,43.3853,205.4727,34.6877,205.58,25.99,205.6783,26.0307,205.9083,25.7118,205.7274,25.2226,205.9898,24.9171,206.2046,24.5919,206.3122,24.2222,206.3954,24.4229,206.6653,24.0745,207.0783,24.0718,207.3023,23.6123,207.6401,23.4279,208.08,23.49" style="stroke:#FB8C00;stroke-width:0.5;"/><text fill="#E65100" font-family="Helvetica" font-size="14" lengthAdjust="spacing" textLength="31.124" x="237.2284" y="39.2703">Type</text><path d="M206.58,47.49 L206.58,47.7702 L216.849,46.9376 L227.118,47.7477 L237.387,48.0229 L247.656,46.5388 L257.9249,47.3864 L268.1939,46.9213 L278.4629,46.9787 L288.7319,47.3991 L299.0009,47.49" fill="#FFF3E0" style="stroke:#FB8C00;stroke-width:0.5;"/><text fill="#000000" font-family="sans-serif" font-size="14" lengthAdjust="spacing" textLength="82.4209" x="211.58" y="65.0252">type : String</text></g><!--class Value--><g class="entity" data-qualified-name="Value" data-source-line="37" id="ent0004"><polygon fill="#FFF3E0" points="403.5,23.49,403.5,23.7002,413.0771,23.0757,422.6543,23.6833,432.2314,23.8897,441.8086,22.7766,451.3857,23.4123,460.9629,23.0635,470.54,23.1065,480.1172,23.4218,489.6943,22.7986,499.2715,23.49,499.3421,23.6605,499.5446,23.4423,499.9534,23.722,500.3872,24.0624,500.6748,24.0494,501.0393,24.2222,501.0603,24.2309,501.1759,24.5717,501.3871,24.9521,501.5522,25.3134,501.8054,25.7112,501.7715,25.99,501.9952,25.99,501.9979,34.6877,501.8564,43.3853,501.926,52.083,502.0056,60.7806,501.7715,69.4783,501.5494,69.3863,501.834,69.9184,501.3873,70.1476,501.4965,70.607,501.0333,70.8293,501.0393,71.246,501.0305,71.225,500.7803,71.6209,500.3259,71.5239,499.992,71.7178,499.6682,71.9361,499.2715,71.9783,499.2715,72.3945,489.6943,71.9744,480.1172,72.2655,470.54,71.4059,460.9629,72.2627,451.3857,72.5265,441.8086,72.4228,432.2314,72.5913,422.6543,71.4952,413.0771,71.3261,403.5,71.9783,403.4207,71.7869,403.1389,71.8137,402.7678,71.6249,402.5263,71.7488,402.0635,71.3387,401.7322,71.246,401.6266,71.2023,401.6561,70.9216,401.234,70.4539,401.133,70.1192,401.3463,69.9146,401,69.4783,401.1452,69.4783,401.2448,60.7806,400.8927,52.083,401.1064,43.3853,401.1968,34.6877,401,25.99,400.8545,25.9297,401.1169,25.6242,401.3317,25.299,401.6401,25.0125,401.5845,24.5753,401.7322,24.2222,401.7912,24.3647,402.0151,23.9052,402.3529,23.7208,402.8571,23.938,403.055,23.4157,403.5,23.49" style="stroke:#FB8C00;stroke-width:0.5;"/><text fill="#E65100" font-family="Helvetica" font-size="14" lengthAdjust="spacing" textLength="35.8066" x="433.4824" y="39.2703">Value</text><path d="M402,47.49 L402,47.7702 L411.8771,46.9376 L421.7543,47.7477 L431.6314,48.0229 L441.5086,46.5388 L451.3857,47.3864 L461.2629,46.9213 L471.14,46.9787 L481.0172,47.3991 L490.8943,46.5682 L500.7715,47.49" fill="#FFF3E0" style="stroke:#FB8C00;stroke-width:0.5;"/><text fill="#000000" font-family="sans-serif" font-size="14" lengthAdjust="spacing" textLength="88.7715" x="407" y="65.0252">value : String</text></g><!--class Entry--><g class="entity" data-qualified-name="Entry" data-source-line="41" id="ent0005"><polygon fill="#F3E5F5" points="609.27,7,609.27,7.2102,619.3721,6.5857,629.4741,7.1933,639.5762,7.3997,649.6782,6.2866,659.7803,6.9223,669.8823,6.5735,679.9844,6.6165,690.0864,6.9318,700.1885,6.3086,710.2905,7.5536,720.3926,6.3697,730.4946,6.8022,740.5967,7.4319,750.6987,7,750.6878,6.9736,751.061,7.1675,751.4017,7.2831,751.7821,7.4943,752.1434,7.6594,752.4665,7.7322,752.6468,7.8069,752.8196,8.1714,752.9686,8.526,752.9842,8.8254,753.195,9.2056,753.1987,9.5,753.9009,9.5,752.4775,19.0581,753.8772,28.6162,752.9022,38.1743,753.7325,47.7324,752.7037,57.2905,753.1302,66.8486,753.9403,76.4067,753.1987,85.9648,753.1837,85.9586,753.0847,86.3318,753.0101,86.7151,752.8876,87.0786,752.6117,87.3786,752.4665,87.7326,752.5031,87.8211,752.0399,87.7028,751.7956,88.1131,751.4757,88.3408,751.109,88.4553,750.6987,88.4648,750.6987,89.0779,740.5967,87.9818,730.4946,87.8127,720.3926,87.8434,710.2905,88.406,700.1885,88.2683,690.0864,89.1463,679.9844,88.2902,669.8823,88.1218,659.7803,88.6931,649.6782,87.798,639.5762,87.9457,629.4741,89.1138,619.3721,88.9005,609.27,88.4648,609.3637,88.691,608.8754,88.2193,608.6036,88.2703,608.2847,88.2073,607.7955,87.7336,607.5022,87.7326,607.4727,87.7204,607.3946,87.3951,607.4101,87.1086,607.0616,86.6714,607.0589,86.3774,606.77,85.9648,606.2162,85.9648,606.0927,76.4067,607.2736,66.8486,606.0531,57.2905,607.279,47.7324,606.9766,38.1743,606.5021,28.6162,606.4162,19.0581,606.77,9.5,606.9113,9.5585,606.8243,9.1083,607.2452,8.8684,607.0391,8.3688,607.5459,8.1645,607.5022,7.7322,607.564,7.8814,607.887,7.6612,608.2154,7.4539,608.6556,7.5167,608.9947,7.3354,609.27,7" style="stroke:#8E24AA;stroke-width:0.5;"/><text fill="#4A148C" font-family="Helvetica" font-size="14" lengthAdjust="spacing" textLength="32.6758" x="663.6465" y="22.7803">Entry</text><path d="M607.77,31 L607.77,31.2802 L618.0863,30.4476 L628.4027,31.2577 L638.719,31.5329 L649.0353,30.0488 L659.3517,30.8964 L669.668,30.4313 L679.9844,30.4887 L690.3007,30.9091 L700.617,30.0782 L710.9334,31.7382 L721.2497,30.1596 L731.566,30.7363 L741.8824,31.5759 L752.1987,31" fill="#F3E5F5" style="stroke:#8E24AA;stroke-width:0.5;"/><text fill="#000000" font-family="sans-serif" font-size="14" lengthAdjust="spacing" textLength="129.0693" x="612.77" y="48.5352">sourceKind : String</text><text fill="#000000" font-family="sans-serif" font-size="14" lengthAdjust="spacing" textLength="117.8584" x="612.77" y="65.0234">sourceUrl : String</text><text fill="#000000" font-family="sans-serif" font-size="14" lengthAdjust="spacing" textLength="134.4287" x="612.77" y="81.5117">sourceLine : Integer</text></g><!--class TypeTo--><g class="entity" data-qualified-name="TypeTo" data-source-line="46" id="ent0006"><polygon fill="#F3E5F5" points="635.28,140.24,635.28,140.4502,645.2157,139.8257,655.1513,140.4333,665.087,140.6397,675.0226,139.5266,684.9583,140.1623,694.8939,139.8135,704.8296,139.8565,714.7652,140.1718,724.7009,140.24,724.6127,140.0271,725.1251,140.5569,725.3276,140.3388,725.7363,140.6184,726.1702,140.9588,726.4687,140.9722,726.4422,140.9613,726.6361,141.3345,726.7517,141.6753,726.963,142.0557,727.1281,142.417,727.2009,142.74,727.7866,142.74,727.872,152.7361,727.8802,162.7322,727.4555,172.7283,727.6645,182.7244,727.9031,192.7205,727.2009,202.7166,726.9788,202.6246,727.2634,203.1567,726.8167,203.3858,726.926,203.8453,726.4627,204.0676,726.4687,204.4843,726.4599,204.4632,726.2097,204.8592,725.7553,204.7622,725.4214,204.9561,725.0976,205.1744,724.7009,205.2166,724.7009,205.6328,714.7652,205.2127,704.8296,205.5038,694.8939,204.6441,684.9583,205.5009,675.0226,205.7648,665.087,205.6611,655.1513,205.8296,645.2157,204.7335,635.28,205.2166,635.1968,205.0157,634.8472,204.8787,634.5654,204.9055,634.1943,204.7167,633.9527,204.8406,633.5122,204.4843,633.4584,204.462,633.2601,204.087,633.2896,203.8063,632.8675,203.3386,632.7666,203.0039,632.78,202.7166,633.429,202.7166,633.2157,192.7205,633.5145,182.7244,632.4582,172.7283,633.0992,162.7322,633.3704,152.7361,632.78,142.74,632.6345,142.6797,632.8969,142.3742,633.1117,142.049,633.4201,141.7625,633.3645,141.3253,633.5122,140.9722,633.5712,141.1147,633.7951,140.6552,634.1329,140.4708,634.6371,140.688,634.835,140.1657,635.28,140.24" style="stroke:#8E24AA;stroke-width:0.5;"/><text fill="#4A148C" font-family="Helvetica" font-size="14" lengthAdjust="spacing" textLength="47.4619" x="656.2595" y="156.0203">TypeTo</text><path d="M633.78,164.24 L633.78,164.5202 L644.049,163.6876 L654.318,164.4977 L664.587,164.7729 L674.856,163.2888 L685.1249,164.1364 L695.3939,163.6713 L705.6629,163.7287 L715.9319,164.1491 L726.2009,164.24" fill="#F3E5F5" style="stroke:#8E24AA;stroke-width:0.5;"/><text fill="#000000" font-family="sans-serif" font-size="14" lengthAdjust="spacing" textLength="82.4209" x="638.78" y="181.7752">type : String</text><text fill="#000000" font-family="sans-serif" font-size="14" lengthAdjust="spacing" textLength="67.0947" x="638.78" y="198.2634">to : String</text></g><!--reverse link Entry to TypeTo--><g class="link" data-entity-1="ent0005" data-entity-2="ent0006" data-link-type="composition" data-source-line="51" id="lnk7"><path d="M679.99,100.86 L680.0834,100.86 L679.8059,108.666 L680.0759,116.472 L680.1676,124.278 L679.6729,132.084 L679.99,139.89" fill="none" style="stroke:#555555;stroke-width:1;"/><polygon fill="#555555" points="679.99,88.86,680.0483,88.8989,679.0751,89.9834,678.4436,91.2957,677.7009,92.5339,676.5921,93.5281,675.99,94.86,675.9684,94.8456,676.6717,95.9811,677.4836,97.1891,678.3711,98.4474,678.9982,99.5322,679.99,100.86,680.1436,100.9624,680.6152,99.5435,681.5351,98.4234,682.5098,97.3399,683.1662,96.0441,683.99,94.86,684.0089,94.8726,683.1811,93.6541,682.4395,92.493,681.6563,91.3042,680.9524,90.1683,679.99,88.86" style="stroke:#555555;stroke-width:1;"/><text fill="#000000" font-family="sans-serif" font-size="13" lengthAdjust="spacing" textLength="31.4209" x="652.99" y="119.4184">meta</text><text fill="#000000" font-family="sans-serif" font-size="13" lengthAdjust="spacing" textLength="24.5146" x="653.6781" y="129.5473">0..n</text></g><!--link Entity to Type--><g class="link" data-entity-1="ent0002" data-entity-2="ent0003" data-link-type="composition" data-source-line="52" id="lnk8"><path d="M122.99,47.73 L122.99,48.0102 L132.5325,47.1776 L142.075,47.9877 L151.6175,48.2629 L161.16,46.7788 L170.7025,47.6264 L180.245,47.1613 L189.7875,47.2187 L199.33,47.73" fill="none" style="stroke:#555555;stroke-width:1;"/><polygon fill="#555555" points="110.99,47.73,111.0289,47.7883,112.1134,48.4151,113.4257,49.3836,114.6639,50.2409,115.6581,50.7321,116.99,51.73,116.9756,51.7084,118.1111,50.8117,119.3191,50.0236,120.5774,49.3111,121.6622,48.3382,122.99,47.73,123.0924,47.8836,121.6735,46.7552,120.5534,46.0751,119.4699,45.4498,118.1741,44.5062,116.99,43.73,117.0026,43.7489,115.7841,44.5211,114.623,45.3795,113.4342,46.1963,112.2983,47.0924,110.99,47.73" style="stroke:#555555;stroke-width:1;"/><polygon fill="#555555" points="205.33,47.73,205.3585,47.794,203.4739,46.8038,201.7562,46.1889,199.9841,45.4517,198.0334,44.3127,196.33,43.73,196.3117,43.7117,197.0295,44.4295,197.8396,45.2396,198.7139,46.1139,199.367,46.767,200.33,47.73,200.4605,47.8605,199.3814,48.3814,198.6834,49.2834,198.0318,50.2318,197.1098,50.9098,196.33,51.73,196.3392,51.7508,198.1257,50.9203,199.9542,50.1844,201.7624,49.4028,203.6093,48.7084,205.33,47.73" style="stroke:#555555;stroke-width:1;"/><text fill="#000000" font-family="sans-serif" font-size="13" lengthAdjust="spacing" textLength="33.7061" x="141.58" y="44.2984">types</text><text fill="#000000" font-family="sans-serif" font-size="13" lengthAdjust="spacing" textLength="8.2202" x="118.5566" y="61.3265">1</text><text fill="#000000" font-family="sans-serif" font-size="13" lengthAdjust="spacing" textLength="24.5146" x="173.0046" y="61.3743">1..n</text></g><!--link Type to Value--><g class="link" data-entity-1="ent0003" data-entity-2="ent0004" data-link-type="composition" data-source-line="53" id="lnk9"><path d="M312.38,47.73 L312.38,48.0102 L322.6688,47.1776 L332.9575,47.9877 L343.2463,48.2629 L353.535,46.7788 L363.8238,47.6264 L374.1125,47.1613 L384.4013,47.2187 L394.69,47.73" fill="none" style="stroke:#555555;stroke-width:1;"/><polygon fill="#555555" points="300.38,47.73,300.4189,47.7883,301.5034,48.4151,302.8157,49.3836,304.0539,50.2409,305.0481,50.7321,306.38,51.73,306.3656,51.7084,307.5011,50.8117,308.7091,50.0236,309.9674,49.3111,311.0522,48.3382,312.38,47.73,312.4824,47.8836,311.0635,46.7552,309.9434,46.0751,308.8599,45.4498,307.5641,44.5062,306.38,43.73,306.3926,43.7489,305.1741,44.5211,304.013,45.3795,302.8242,46.1963,301.6883,47.0924,300.38,47.73" style="stroke:#555555;stroke-width:1;"/><polygon fill="#555555" points="400.69,47.73,400.7185,47.794,398.8339,46.8038,397.1162,46.1889,395.3441,45.4517,393.3934,44.3127,391.69,43.73,391.6717,43.7117,392.3895,44.4295,393.1996,45.2396,394.0739,46.1139,394.727,46.767,395.69,47.73,395.8205,47.8605,394.7414,48.3814,394.0434,49.2834,393.3918,50.2318,392.4698,50.9098,391.69,51.73,391.6992,51.7508,393.4857,50.9203,395.3142,50.1844,397.1224,49.4028,398.9693,48.7084,400.69,47.73" style="stroke:#555555;stroke-width:1;"/><text fill="#000000" font-family="sans-serif" font-size="13" lengthAdjust="spacing" textLength="39.603" x="331" y="44.2984">values</text><text fill="#000000" font-family="sans-serif" font-size="13" lengthAdjust="spacing" textLength="8.2202" x="307.9734" y="61.4221">1</text><text fill="#000000" font-family="sans-serif" font-size="13" lengthAdjust="spacing" textLength="24.5146" x="368.2998" y="61.3265">1..n</text></g><!--link Value to Entry--><g class="link" data-entity-1="ent0004" data-entity-2="ent0005" data-link-type="composition" data-source-line="54" id="lnk10"><path d="M514.12,47.73 L514.12,48.0102 L523.7267,47.1776 L533.3333,47.9877 L542.94,48.2629 L552.5467,46.7788 L562.1533,47.6264 L571.76,47.1613 L581.3667,47.2187 L590.9733,47.6391 L600.58,47.73" fill="none" style="stroke:#555555;stroke-width:1;"/><polygon fill="#555555" points="502.12,47.73,502.1589,47.7883,503.2434,48.4151,504.5557,49.3836,505.7939,50.2409,506.7881,50.7321,508.12,51.73,508.1056,51.7084,509.2411,50.8117,510.4491,50.0236,511.7074,49.3111,512.7922,48.3382,514.12,47.73,514.2224,47.8836,512.8035,46.7552,511.6834,46.0751,510.5999,45.4498,509.3041,44.5062,508.12,43.73,508.1326,43.7489,506.9141,44.5211,505.753,45.3795,504.5642,46.1963,503.4283,47.0924,502.12,47.73" style="stroke:#555555;stroke-width:1;"/><polygon fill="#555555" points="606.58,47.73,606.6085,47.794,604.7239,46.8038,603.0062,46.1889,601.2341,45.4517,599.2834,44.3127,597.58,43.73,597.5617,43.7117,598.2795,44.4295,599.0896,45.2396,599.9639,46.1139,600.617,46.767,601.58,47.73,601.7105,47.8605,600.6314,48.3814,599.9334,49.2834,599.2818,50.2318,598.3598,50.9098,597.58,51.73,597.5892,51.7508,599.3757,50.9203,601.2042,50.1844,603.0124,49.4028,604.8593,48.7084,606.58,47.73" style="stroke:#555555;stroke-width:1;"/><text fill="#000000" font-family="sans-serif" font-size="13" lengthAdjust="spacing" textLength="43.1196" x="532.77" y="44.2984">entries</text><text fill="#000000" font-family="sans-serif" font-size="13" lengthAdjust="spacing" textLength="8.2202" x="509.8325" y="61.3743">1</text><text fill="#000000" font-family="sans-serif" font-size="13" lengthAdjust="spacing" textLength="24.5146" x="574.1983" y="61.0517">1..n</text></g><?plantuml-src VP71Ri8m38RlUOeCRfE6oe098OG4hDKcfbt6s3cqfere4-GO49hsxalQ2cZBbbpglv_zEtOY8-2Xn305mn8NGBQZ4yyWMmEMaY50q7JQ0RlJEv9QyKIew8YI21Gdt0DBOKESD4SP9yGZYH0wa36pbMedK6HyBS9jZ7glehbEDV9suBjxHPX4HFh8Do8rS9qPfi8O_isuFRDQbQz44kH_feZwM9OUvAT8q1W1DlL0AteN6V0NI0z0CXJifs4w7Y_WD9dyuTqEWg3dUqsRO3QSUzxPfbJzfq7NghTSdWM9Vsnw_Y2uyPgX_zYVJkis_MctFvmxcs9klY9fLrfz2XJYY7yGIXLVwALTSurrcxz1haIwhwE7N6kojWTqBLJUQVGUGrX85LqoBledfhVaDwcSmQiYY06jmwNjfQuPL1lF5LrfhcZh_e6tl4v7jSeg5ic012i7r-gsBF8miHzdo2Akk65vq41MvHZoSHXMX7MeC1-vLQ2qr2y0?></g></svg>